<svg width="628" height="933" viewBox="0 0 628 933" fill="none" xmlns="http://www.w3.org/2000/svg">
<path d="M397.084 199.528C409.045 185.556 420.51 171.117 433.136 157.768C442.121 148.283 437.26 141.602 430.954 134.34C430.954 134.014 430.954 133.674 430.954 133.349C431.379 131.353 431.804 129.371 432.244 127.389C439.046 139.563 448.952 151.808 430.826 163.105C429.268 164.081 428.46 166.276 427.312 167.903C430.741 168.625 434.398 170.48 437.558 169.899C449.278 167.776 460.955 164.662 460.643 183.135C460.739 183.713 460.935 184.268 461.224 184.777C461.564 184.494 462.046 184.268 462.245 183.9C472.406 164.902 483.856 180.984 494.768 182.711C449.845 174.118 446.798 201.75 450.1 234.521C450.737 240.863 452.764 246.143 460.842 239.674C463.052 237.905 468.083 238.089 471.031 239.306C473.157 240.184 474.786 244.119 475.282 246.922C479.633 272.884 461.763 294.16 459.864 318.834C459.38 324.147 459.243 329.485 459.453 334.816C459.594 337.718 461.068 340.563 461.947 343.437C461.379 343.612 460.795 343.73 460.204 343.791C458.787 340.422 456.208 337.01 456.222 333.627C456.363 313.653 458.347 294.259 469.996 276.635C472.179 273.323 466.864 265.07 465.022 259.11L472.972 263.527C472.679 258.28 472.372 253.028 472.051 247.771C474.049 242.038 468.664 242.732 466.057 241.217C465.391 240.835 463.747 242.109 462.542 242.633L467.97 249.173C466.964 252.471 465.972 255.769 464.965 259.082C449.377 263.895 453.713 281.986 443.708 290.536L443.198 288.186C448.314 276.451 452.225 264.73 461.04 254.113C466.709 247.29 444.034 247.743 446.769 233.714C448.881 222.97 450.043 210.046 445.806 200.717C442.716 193.88 430.444 198.013 422.394 201.142L419.56 199.641C419.376 196.314 419.248 190.086 418.993 190.072C410.49 189.888 411.171 197.942 411.978 201.637C415.79 218.921 390.877 225.461 397.226 243.1L396.22 243.977C396.843 231.709 397.472 219.44 398.105 207.172C401.676 208.375 406.466 213.245 406.678 204.341C406.763 200.646 406.678 196.951 406.678 193.257L397.084 199.528ZM455.74 175.76C451.744 173.722 447.237 169.446 443.666 170.098C439.003 170.961 434.086 174.996 431.039 179.002C427.354 183.829 448.243 179.002 435.914 189.364C446.684 192.053 447.464 179.37 455.74 175.788V175.76Z" fill="#FF7A00"/>
<path d="M301.994 51.301L268.918 60.7006C276.386 74.2478 267.033 91.4473 278.327 104.216C278.852 105.129 279.217 106.125 279.404 107.16C277.913 107.033 276.45 106.675 275.068 106.099C266.168 100.578 268.932 90.9376 267.727 83.0669C266.083 72.2801 269.938 57.9543 250.353 63.9706L250.566 60.5024C261.492 55.8451 281.176 61.0262 275.791 38.0794L282.366 30.7891C293.987 32.8276 300.69 39.5658 301.994 51.301Z" fill="#FF7A00"/>
<path d="M258.629 824.157C245.492 818.382 232.724 808.586 218.056 821.326C217.334 821.963 212.884 818.948 210.758 816.995C210.049 816.329 210.758 812.564 211.58 812.182C213.507 811.332 215.987 811.629 218.241 811.672C223.172 811.799 228.161 812.054 233.05 812.252L243.324 812.734C241.001 811.045 238.583 809.49 236.082 808.076C235.289 807.666 233.829 808.812 232.71 808.727C231.292 808.628 228.657 808.034 228.642 807.595C228.543 804.254 227.75 799.002 229.464 797.912C233.602 795.265 238.988 794.543 243.863 793.043L244.458 796.497C243.82 799.215 242.715 801.947 242.786 804.651C242.786 805.684 245.492 806.788 247.122 807.482C247.434 807.623 249.163 806.066 249.063 805.443C246.668 791.556 262.314 789.419 265.899 779.481C266.239 779.779 266.579 780.076 266.934 780.359C267.43 793.51 241.142 796.511 254.052 814.333L248.256 813.795L258.629 824.157Z" fill="#FF7A00"/>
<path d="M559.387 421C561.952 413.37 574.383 426.971 575.956 419.143C584.076 378.628 559.092 408.596 549.03 406.685C548.761 406.36 548.478 406.034 548.223 405.694C552.375 403.118 556.91 397.894 560.637 398.404C579.542 401.009 582.262 390.137 582.362 375.443C582.489 355.299 550.36 338.849 559.387 324C557.46 338.283 599.07 352.921 588.37 362.519C579.513 370.46 583.623 392.487 581.285 408.186C579.527 420.36 568.811 411.671 559.387 421Z" fill="#FF7A00"/>
<path d="M377.102 89.3667C363.101 87.9511 347.342 95.7652 335.764 81.0147C334.744 79.7124 328.268 80.6325 328.239 80.8731C327.46 89.579 327.063 98.3416 326.822 107.09C326.892 109.725 327.124 112.354 327.517 114.961C325.887 112.129 323.18 109.468 322.812 106.467C320.573 88.8571 329.104 68.6849 310.057 55.1943C323.464 56.0436 324.229 70.2137 332.547 76.9802C346.407 88.2625 363.03 83.1664 377.102 89.3667Z" fill="#FF7A00"/>
<path d="M173.317 730.446C169.363 747.518 183.974 752.133 193.568 759.621C202.638 766.699 206.053 772.22 194.801 780.728C192.888 782.143 197.295 791.076 197.536 796.582C197.678 799.965 195.453 803.448 194.291 806.874C193.71 793.893 192.874 780.912 192.618 767.931C192.363 753.775 172.339 756.931 171.503 743.073C171.234 738.5 168.229 734.07 173.317 730.446Z" fill="#FF7A00"/>
<path d="M153.89 597.922C156.605 609.596 166.966 608.029 175.113 609.737C182.815 611.351 186.575 613.712 182.228 622.326C181.48 623.771 186.877 627.928 188.683 631.237C189.79 633.272 189.472 636.08 189.791 638.534C185.524 630.738 181.1 623.019 177.033 615.125C172.613 606.51 161.268 614.48 156.58 606.222C155.037 603.496 151.858 601.68 153.89 597.922Z" fill="#FF7A00"/>
<path d="M198.042 455.623C202.795 459.913 210.419 463.505 201.642 471.035C201.223 471.379 201.953 473.064 202.138 474.112C203.508 473.41 204.818 472.597 206.055 471.681C208.33 469.739 210.524 467.602 212.654 465.459C214.784 463.316 216.924 461.047 218.998 458.806C218.487 460.692 218.59 463.404 217.367 464.324C211.474 468.693 209.777 478.816 200.058 477.306C199.198 477.173 199.054 470.896 199.047 467.467C199.289 465.552 199.792 463.679 200.542 461.9C198.589 462.996 196.046 463.641 194.785 465.264C185.442 477.38 181.433 475.698 172.258 487.948C176.043 468.181 188.656 471.666 198.042 455.623Z" fill="#FF7A00"/>
<path d="M122.37 15.6003C101.68 29.006 124.156 40.8828 123.788 53.5665L122.753 54.2602C112.677 45.894 111.303 56.6525 107.164 61.3381L106.13 60.5171C106.3 50.4805 117.722 42.1144 111.147 31.5965C109.73 29.3316 113.287 13.1089 101.864 25.283C99.0301 28.2699 99.1859 34.003 97.9672 38.4763C93.6732 17.5822 107.363 15.9259 122.37 15.6003Z" fill="#FF7A00"/>
<path d="M246.314 926.93C250.225 926.534 254.647 924.779 257.949 926.01C267.089 929.394 272.205 928.233 271.879 917.332L288.347 921.367C283.953 923.774 279.844 927.44 275.11 928.346C263.768 930.658 252.256 932.045 240.688 932.494C236.649 932.607 230.513 929.054 236.437 922.584L237.329 923.901L243.239 930.738L246.314 926.93Z" fill="#FF7A00"/>
<path d="M247.164 857.495L251.416 857.877C255.341 880.243 239.214 895.942 232.157 914.642C231.434 916.553 226.573 916.907 223.654 917.983L225.694 911.259C225.744 911.07 225.749 910.872 225.71 910.68C225.671 910.489 225.588 910.309 225.468 910.155L224.292 909.036C228.316 904.096 231.377 896.664 236.564 894.654C257.155 886.642 239.115 869.414 246.3 858.627L247.164 857.495Z" fill="#FF7A00"/>
<path d="M182.613 825.318C193.1 822.94 193.143 834.647 199.435 838.427C202.85 840.465 198.684 845.731 193.185 845.745C193.043 845.745 192.916 848.987 192.774 850.714C191.442 851.563 189.472 852.13 188.877 853.319C187.494 856.437 186.306 859.637 185.32 862.902C184.073 861.727 181.664 860.425 181.763 859.377C182.301 854.154 182.103 845.321 184.597 844.372C210.786 834.605 179.921 831.802 182.613 825.318Z" fill="#FF7A00"/>
<path d="M248.34 778.505L242.672 773.211L242.006 772.262L278.271 754.525L266.933 780.303C266.579 780.02 266.239 779.723 265.899 779.425C262.129 753.152 257.226 789.49 253.145 779.199L248.34 778.505Z" fill="#FF7A00"/>
<path d="M336.133 685.246C341.362 678.013 353.138 673.454 345.968 661.181C352.161 661.719 353.124 667.027 351.197 670.34C345.769 679.683 341.603 690.824 330.252 694.801C325.022 696.628 318.914 696.104 313.246 696.642C320.261 696.429 318.319 678.126 330.407 688.148L332.987 686.619L333.213 686.52L336.133 685.246Z" fill="#FF7A00"/>
<path d="M309.849 617.084C322.14 626.872 327.512 644.151 352.853 639.738C350.098 647.633 339.735 646.741 333.976 642.871C317.731 631.968 297.714 621.987 293.327 605.5C291.317 597.908 294.022 590.118 294.584 582.473C293.026 591.75 328.37 596.636 305.933 608.405L308.118 612.405L308.243 612.742L309.849 617.084Z" fill="#FF7A00"/>
<path d="M292.074 713.828C281.643 707.174 270.476 702.814 257.892 702.871L268.436 700.295C273.112 701.894 277.775 703.522 282.48 705.051C284.166 705.603 285.909 705.943 287.638 706.382C287.936 704.853 288.857 703.126 288.432 701.852C286.788 696.869 281.814 692.395 286.759 686.705L298.21 698.03C284.563 698.752 296.325 709.397 292.074 713.828Z" fill="#FF7A00"/>
<path d="M173.034 670.778C173.671 681.041 172.552 692.338 187.46 693.923C188.466 694.022 189.161 697.179 189.997 698.92C186.27 697.929 182.231 697.504 178.886 695.763C175.769 694.15 173.402 691.12 170.695 688.685C171.319 694.234 171.687 699.812 172.651 705.29C173.133 708.121 174.692 710.698 175.769 713.387C160.506 700.123 168.414 685.345 173.034 670.778Z" fill="#FF7A00"/>
<path d="M180.119 763.118C186.425 766.996 183.052 772.517 181.834 777.104C181.451 778.519 176.902 778.873 174.266 779.723C173.331 775.773 171.531 771.781 171.772 767.917C171.942 765.156 172.665 759.31 178.688 763.033L178.872 764.632L178.744 764.533C178.62 764.729 178.541 764.95 178.511 765.18C178.482 765.41 178.504 765.643 178.574 765.864L180.147 764.448C180.119 763.967 180.119 763.542 180.119 763.118Z" fill="#FF7A00"/>
<path d="M173.033 16.8029C154.299 15.996 163.298 28.7505 164.006 36.4371C164.814 45.228 161.512 44.2088 156.127 41.1652C164.772 33.2521 152.216 16.4631 168.64 11.5793C171.319 10.7866 173.345 7.72892 175.726 5.71878L181.593 14.5521H180.53C176.916 11.5652 173.175 8.04035 173.033 16.8029Z" fill="#FF7A00"/>
<path d="M59.761 43.8972C65.217 52.4757 70.8572 60.8843 75.9589 69.7176C76.8517 71.2748 75.5055 74.1342 75.1937 76.385L54.8718 46.7708L59.761 43.8972Z" fill="#FF7A00"/>
<path d="M259.479 902.015C229.464 893.621 257.141 921.508 245.308 924.537L237.301 923.9L236.408 922.584C251.685 919.102 237.91 908.046 241.751 902.157C246.895 894.3 253.542 892.531 259.479 902.015Z" fill="#FF7A00"/>
<path d="M619.387 320.533C617.97 312.931 612.093 314.616 604.908 310.666C605.163 310.341 605.433 310.015 605.716 309.718L624.621 318.07L627.03 320.533H619.387Z" fill="#FF7A00"/>
<path d="M266.565 745.026C264.992 739.449 263.022 733.928 262.314 728.251C262.215 727.43 268.11 725.845 271.242 724.613L275.493 729.823C275.238 730.162 274.983 730.516 274.742 730.87C256.433 726.567 272.12 741.926 266.565 745.026Z" fill="#FF7A00"/>
<path d="M224.263 909.023L225.44 910.141C225.44 910.509 225.567 910.892 225.638 911.26L223.597 917.984C219.346 909.235 207.3 902.936 214.953 890.465C217.135 897.104 214.811 906.022 224.263 909.023Z" fill="#FF7A00"/>
<path d="M147.525 1.14673L145.271 7.13468L122.98 15.6282L147.525 1.14673Z" fill="#FF7A00"/>
<path d="M216.016 910.891C212.487 913.892 210.347 917.106 208.533 916.907C206.436 916.653 204.168 913.694 203.077 911.387C202.624 910.424 205.302 906.545 206.025 906.687C208.916 907.324 211.58 908.895 216.016 910.891Z" fill="#FF7A00"/>
<path d="M249.857 18.4171C249.474 22.1684 250.225 28.4961 248.525 29.2322C237.584 34.0027 227.069 32.2333 217.943 24.1078C229.195 25.6083 242.473 38.5468 249.857 18.4171Z" fill="#FF7A00"/>
<path d="M28.0452 65.1457H38.4045C42.6559 58.8605 36.4347 45.4265 51.2297 46.29C38.6454 49.1212 50.0109 67.1276 36.8598 69.0811C34.1531 69.5482 30.9787 66.5613 28.0452 65.1457Z" fill="#FF7A00"/>
<path d="M148.942 12.1599L157.133 0C163.17 10.6736 145.3 15.3309 150.642 26.0752C152.981 30.775 154.185 35.9844 155.914 41.0522C140.439 34.5829 151.068 21.8284 148.942 12.1599Z" fill="#FF7A00"/>
<path d="M75.2505 76.6117C83.7534 84.9778 72.9405 93.5988 75.5906 102.092C65.3305 93.6979 73.8333 85.1052 75.2505 76.6117Z" fill="#FF7A00"/>
<path d="M548.123 218.837C553.792 209.197 544.887 207.5 546.887 201.5L552.887 205.5H560.887C552.2 207.468 553.948 207.357 549.016 219.856L548.123 218.837Z" fill="#FF7A00"/>
<path d="M261.704 825.346C266.211 820.689 260.911 818.495 259.196 815.437C261.619 817.079 266.012 818.608 266.112 820.378C266.537 828.192 268.025 836.643 260.868 842.801C261.152 836.978 261.43 831.16 261.704 825.346Z" fill="#FF7A00"/>
<path d="M192.958 850.984C204.82 855.542 196.955 865.239 198.627 872.458L192.958 850.984Z" fill="#FF7A00"/>
<path d="M63.3465 40.2028C55.0279 26.2168 44.4985 44.6761 35.6697 38.3201C45.6606 36.5081 55.5097 25.3391 65.7557 37.7256L63.3465 40.2028Z" fill="#FF7A00"/>
<path d="M63.3464 40.2028L65.7556 37.7255C71.1407 39.4242 76.3275 41.307 75.2788 48.6398C74.1026 42.0714 62.6662 52.1504 63.9416 41.6467C63.7149 41.1654 63.5307 40.6841 63.3464 40.2028Z" fill="#FF7A00"/>
<path d="M275.904 721.882C281.573 721.386 285.555 730.375 292.116 724.713C288.843 733.702 282.055 732.994 274.799 730.956L275.536 729.908C286.476 727.657 272.631 724.345 275.904 721.882Z" fill="#FF7A00"/>
<path d="M62.4962 314.078L73.9609 321.41L68.7175 324.242C62.071 323.661 62.4962 318.763 62.4962 314.078Z" fill="#FF7A00"/>
<path d="M304.828 710.698L299.414 714.803C298.408 713.501 296.325 711.816 296.58 710.981C297.331 708.886 299.159 707.173 300.548 705.319L304.828 710.698Z" fill="#FF7A00"/>
<path d="M318.702 702.629C320.388 706.536 321.89 708.291 321.607 709.806C321.253 711.646 319.425 713.189 318.248 714.859C317.1 713.699 314.918 712.396 315.046 711.377C315.315 709.14 316.746 707.045 318.702 702.629Z" fill="#FF7A00"/>
<path d="M282.423 30.7892L275.847 38.1503C280.368 31.0723 269.371 29.9257 270.49 24.1359L282.423 30.7892Z" fill="#FF7A00"/>
<path d="M175.868 713.613C179.694 716.869 185.363 713.925 187.573 715.029C195.169 718.695 186.312 719.375 185.462 719.276C179.793 718.695 177.625 722.107 175.811 726.425C175.868 722.135 175.868 717.874 175.868 713.613Z" fill="#FF7A00"/>
<path d="M564.165 455.849L555.323 454.759C556.924 449.295 560.254 447.44 565.611 449.889L564.165 455.849Z" fill="#FF7A00"/>
<path d="M528.737 489.965L547.16 481.231C541.888 486.129 539.635 496.675 528.737 490.999C528.737 490.673 528.737 490.319 528.737 489.965Z" fill="#FF7A00"/>
<path d="M194.291 807.015C199.222 809.152 200.03 812.989 196.473 816.33C192.916 819.67 188.325 822.728 183.946 816.825C190.408 816.726 196.091 815.763 194.291 807.015Z" fill="#FF7A00"/>
<path d="M35.5703 38.2494C28.768 37.8813 21.3988 41.7175 15.3901 35.4182L35.5703 38.2494Z" fill="#FF7A00"/>
<path d="M0 41.0947C8.50287 40.2454 10.501 47.8613 14.8375 52.4195L0 41.0947Z" fill="#FF7A00"/>
<path d="M549.994 467.753C551.567 460.067 558.695 459.005 564.165 455.905L549.994 467.753Z" fill="#FF7A00"/>
<path d="M178.886 764.632L178.702 763.032L180.119 763.117C180.119 763.542 180.119 763.967 180.119 764.391L178.886 764.632Z" fill="#FF7A00"/>
<path d="M528.737 489.965C528.737 490.319 528.737 490.673 528.737 491.027L527.32 491.253L528.737 489.965Z" fill="#FF7A00"/>
<path d="M38.4046 65.1591C35.5703 63.517 32.7738 61.8655 30.0151 60.2045L34.635 57.8405L38.4046 65.2157V65.1591Z" fill="#FF7A00"/>
<path d="M268.478 700.293L257.935 702.87L236.805 699.359C235.034 697.25 233.588 694.603 231.363 693.272C230.485 692.748 227.891 695.225 226.021 696.216C224.15 697.207 219.913 698.071 222.208 694.886C231.221 682.457 217.475 688.657 215.236 685.684L210.432 681.197C213.521 681.551 216.639 681.707 219.686 682.301C225.085 683.377 230.442 684.722 235.813 685.939H239.257C237.925 675.619 236.89 665.484 229.337 657.005C222.251 649.077 219.133 663.092 211.693 659.085C207.598 656.877 201.901 657.358 199.534 651.923C199.222 651.186 200.299 649.856 200.739 648.808C202.68 650.748 205.359 654.711 206.407 654.315C218.467 649.884 229.932 646.331 237.273 661.549L235.388 645.439C234.764 641.999 234.155 638.545 233.546 635.105C223.753 632.274 214.187 629.797 206.535 640.003C205.387 641.546 198.344 645.666 201.22 637.767C202.638 633.803 209.27 628.863 213.21 629.117C236.224 630.618 226.602 615.344 226.559 604.925L227.579 604.09L229.322 604.231C229.549 604.472 229.762 604.727 229.974 604.996C246.045 635.431 224.674 680.999 268.478 700.293Z" fill="#FF7A00"/>
<path d="M347.243 249.398C346.152 262.917 335.212 274.341 338.854 288.865V288.794C330.464 314.87 355.463 333.513 354.272 358.074C349.695 346.211 345.245 334.292 340.469 322.5C339.321 319.668 337.096 317.304 335.367 314.714C333.086 317.616 329.529 320.206 328.749 323.476C325.249 337.859 322.571 352.439 319.552 366.949C319.298 367.783 318.96 368.589 318.546 369.356C318.078 368.464 317.228 367.572 317.129 366.666C316.477 346.267 323.052 327.808 332.25 310.042C333.001 308.627 333.667 305.555 333.213 305.258C327.672 301.959 333.213 290.507 324.597 291.314C316.477 292.079 319.425 287.69 320.927 285.51C329.458 273.209 338.428 261.36 347.243 249.398Z" fill="#FF7A00"/>
<path d="M295.687 203.902C305.834 213.811 317.781 213.075 330.166 209.678C328.948 215.34 326.864 216.529 319.949 216.161C305.678 215.397 291.606 218.992 281.261 230.572C280.552 231.379 279.05 231.492 277.916 231.987C278.542 230.648 279.257 229.352 280.056 228.109C281.473 226.24 283.018 224.541 284.506 222.772C281.828 222.375 278.54 220.79 276.584 221.795C260.06 230.204 246.626 226.481 235.487 212.396L236.125 208.956C235.756 206.124 236.337 201.793 234.849 200.901C231.264 198.778 226.587 197.065 222.563 197.433C215.987 198.027 209.511 201.212 203.8 195.267C224.362 191.7 239.441 193.851 250.565 216.94C257.339 230.968 276.187 216.387 289.679 216.345C296.849 216.26 303.411 212.806 295.687 203.902Z" fill="#FF7A00"/>
<path d="M466.991 384.509C460.039 384.673 456.264 389.115 453.286 394.623C451.685 392.255 451.966 391.118 454.434 388.818C459.528 384.076 463.006 377.909 462.385 370.314C462.338 369.789 462.805 369.224 463.012 368.656C463.277 369.334 463.496 370.029 463.668 370.735C463.853 371.872 463.935 372.996 464.061 374.124C465.107 373.321 466.782 372.711 467.086 371.681C469.68 363.005 475.544 359.569 484.315 360.488L485.323 361.89C486.454 362.731 487.797 364.418 488.617 364.202C490.584 363.672 492.773 362.619 494.002 361.081C496.013 358.571 497.069 355.209 501.113 355.243C495.432 363.676 489.572 368.227 477.604 364.219C470.328 361.789 469.142 373.394 464.598 378.14C462.205 380.683 461.215 384.168 466.991 384.509Z" fill="#FF7A00"/>
<path d="M136.428 327.285L141.856 344.074L134.671 349.085C137.236 350.147 140.34 350.685 142.281 352.398C144.759 354.829 146.912 357.57 148.687 360.552C149.183 361.274 148.828 362.576 148.871 363.609L143.202 361.118C141.785 358.952 140.807 356.022 138.795 354.861C136.783 353.7 133.878 354.45 131.341 354.351L139.56 361.67L138.554 362.817C118.473 355.767 119.635 340.479 119.848 322.812C119.99 310.213 111.728 297.558 107.533 284.817C106.287 280.266 105.298 275.649 104.571 270.987L105.705 269.982L119.054 303.121C118.97 303.305 118.926 303.506 118.926 303.709C118.926 303.911 118.97 304.112 119.054 304.296C117.41 317.404 129.102 320.519 136.188 327.087C130.972 328.22 122.172 321.425 121.719 332.65C121.591 335.85 126.211 342.177 128.294 342.022C137.208 341.37 134.898 332.99 136.428 327.285Z" fill="#FF7A00"/>
<path d="M210.985 352.242C212.94 344.966 213.961 337.222 217.163 330.541C219.828 324.977 217.163 325.034 213.564 324.468C233.503 309.675 233.503 309.675 230.782 306.292C237.159 295.222 248.851 291.442 259.125 285.681C259.394 286.006 259.664 286.332 259.919 286.672C257.906 292.405 255.015 296.467 248.284 298.294C240.575 300.403 232.851 305.541 236.323 314.927C239.568 323.661 238.732 335.835 251.713 338.822C256.928 340.025 261.931 342.205 267.033 343.932C261.718 344.102 256.319 344.895 251.104 344.244C247.802 343.819 244.769 341.243 241.623 339.643C241.722 346.141 241.538 352.666 241.978 359.136C242.304 363.935 243.395 368.663 244.231 373.433C243.919 373.688 243.607 373.929 243.281 374.155C237.854 361.797 236.975 348.958 237.613 335.552C237.854 330.385 233.517 324.992 231.264 319.711C225.156 323.718 219.006 327.851 219.034 336.217C219.034 342.913 217.688 348.788 212.033 353.006L210.985 352.242Z" fill="#FF7A00"/>
<path d="M114.476 454.148C116.431 446.872 117.452 439.128 120.655 432.447C123.319 426.883 120.655 426.94 117.055 426.374C136.994 411.581 136.994 411.581 134.273 408.198C140.651 397.128 152.342 393.348 162.616 387.587C162.886 387.912 163.155 388.238 163.41 388.578C161.398 394.311 158.507 398.373 151.775 400.2C144.066 402.309 136.342 407.447 139.814 416.833C143.06 425.567 142.224 437.741 155.205 440.728C160.42 441.931 165.422 444.111 170.524 445.838C165.21 446.008 159.81 446.801 154.595 446.15C151.293 445.725 148.261 443.149 145.115 441.549C145.214 448.047 145.029 454.572 145.469 461.042C145.795 465.841 146.886 470.569 147.722 475.339C147.41 475.594 147.099 475.835 146.773 476.061C141.345 463.703 140.466 450.864 141.104 437.458C141.345 432.291 137.008 426.898 134.755 421.617C128.647 425.624 122.497 429.757 122.525 438.123C122.525 444.819 121.179 450.694 115.525 454.912L114.476 454.148Z" fill="#FF7A00"/>
<path d="M346.194 429.208C345.188 432.393 344.168 435.564 343.162 438.735C341.575 428.103 339.902 417.501 338.485 406.827C338.258 405.199 338.825 402.156 339.704 401.872C364.348 393.988 354.428 374.452 354.556 358.329C366.658 361.783 365.893 365.647 358.552 388.424C354.428 401.363 342.354 412.008 346.209 427.438C346.209 428.018 346.194 428.613 346.194 429.208Z" fill="#FF7A00"/>
<path d="M236.054 208.899L235.388 212.339C230.314 206.889 223.03 199.783 217.093 205.53C206.351 215.963 186.822 215.439 182.599 233.417C182.371 234.148 181.95 234.803 181.38 235.314C177.455 233.658 173.6 231.874 169.731 230.105L177.37 226.028C178.277 224.797 179.198 223.565 180.105 222.319C185.363 220.705 193.979 220.323 195.127 217.195C197.125 211.816 190.025 213.783 186.624 212.948C179.425 211.122 179.807 216.742 178.688 220.904L163.553 209.72L167.365 206.705C181.536 210.018 195.878 215.086 209.879 206.281C219.487 200.236 228.543 195.876 236.054 208.899Z" fill="#FF7A00"/>
<path d="M292.697 489.866C281.799 489.342 278.639 479.745 273.821 472.879C266.664 462.616 257.339 458.397 245.308 458.836L233.078 469.014C230.877 472.714 228.675 476.408 226.474 480.098L219.799 474.705C222.364 473.997 226.446 474.04 227.253 472.44C232.27 462.531 239.016 456.713 250.821 454.816C263.433 452.806 268.081 466.919 279.249 466.141L279.419 467.188L279.291 467.372L278.228 469.014C278.441 474.224 276.542 478.244 286.32 475.554C295.262 473.049 282.31 488.309 292.697 489.866Z" fill="#FF7A00"/>
<path d="M89.5778 261.813C90.5273 254.919 94.5236 243.949 91.8027 241.91C85.1563 236.941 75.8315 233.417 66.2941 236.984C52.3494 242.193 59.0808 253.886 58.1172 263.229C53.7665 259.294 48.3247 254.523 51.4424 248.79C56.1048 240.296 62.9496 232.935 68.8733 225.093C75.8598 238.215 88.2173 236.927 100.05 236.205C102.275 236.064 104.302 232.765 106.399 230.925L99.3136 249.328L98.2365 253.801C98.4214 254.171 98.5778 254.554 98.7042 254.948C98.5995 255.33 98.4669 255.704 98.3074 256.066C97.8256 256.845 97.3296 257.623 96.8902 258.402L89.5778 261.813Z" fill="#FF7A00"/>
<path d="M203.176 407.435C223.881 413.919 220.805 427.254 213.224 441.99L212.317 441.254C207.923 438.564 198.613 444.906 198.698 435.365C198.698 430.623 207.073 428.4 209.582 425.456C214.371 419.893 210.248 411.965 202.354 408.469C202.623 408.101 202.893 407.761 203.176 407.435Z" fill="#FF7A00"/>
<path d="M379.937 201.099L396.744 199.683C372.454 208.318 367.99 236.758 347.357 249.031C352.246 242.236 355.704 232.568 362.336 229.213C375.076 223.041 367.183 205.898 379.937 201.099Z" fill="#FF7A00"/>
<path d="M202.354 408.441C193.114 401.363 183.733 394.511 174.805 387.094C173.388 385.876 173.629 382.181 173.827 379.69C173.827 379.11 177.568 377.821 178.376 378.444C184.045 382.691 189.883 386.938 194.475 392.161C198.245 396.493 200.328 402.283 203.176 407.436C202.893 407.761 202.623 408.101 202.354 408.441Z" fill="#FF7A00"/>
<path d="M177.398 226.028L169.76 230.105C156.765 228.689 146.42 216.515 132.021 220.804L122.101 208.177C139.405 217.577 158.125 222.687 177.398 226.028Z" fill="#FF7A00"/>
<path d="M213.224 441.991C214.641 447.469 222.846 453.315 212.373 458.142C205.486 461.299 203.87 456.571 202.453 451.489C199.619 441.991 207.059 442.713 212.373 441.254L213.224 441.991Z" fill="#FF7A00"/>
<path d="M100.759 256.25C103.352 247.898 131.695 245.378 106.555 230.769C109.659 227.174 116.376 228.915 123.362 235.13C118.757 247.403 102.828 253.957 105.719 270.01L104.585 271.015L100.759 256.25Z" fill="#FF7A00"/>
<path d="M217.121 703.634C221.373 697.971 226.687 697.547 232.625 700.803C240.391 709.466 258.459 699.047 261.549 716.374C251.714 712.58 243.792 700.406 231.037 709.48C231.208 710.471 231.363 711.462 231.519 712.467C223.116 715.355 227.75 697.08 217.121 703.634Z" fill="#FF7A00"/>
<path d="M220.451 308.656C221.514 323.789 203.148 315.606 199.959 325.671C192.023 326.181 184.101 326.761 176.165 327.087C175.102 327.087 173.969 325.969 172.877 325.374C174.295 324.581 175.712 323.152 177.129 323.067C192.973 322.246 207.683 318.438 220.451 308.656Z" fill="#FF7A00"/>
<path d="M245.747 263.866C242.743 243.595 258.374 249.484 265.219 244.048C265.587 244.572 266.367 245.365 266.225 245.591C265.29 247.162 264.34 249.711 263.036 249.951C256.432 251.126 252.394 253.179 256.815 260.667C257.155 261.233 255.752 262.833 255.171 263.951C254.973 253.575 246.725 265.056 245.747 263.866Z" fill="#FF7A00"/>
<path d="M192.873 293.877L199.577 295.958C195.24 295.689 190.861 295.604 186.539 295.08C177.554 293.99 172.878 300.148 168.116 305.938C163.864 311.048 163.638 320.094 154.072 319.641C156.906 314.885 158.692 309.137 162.575 305.627C169.051 299.738 174.309 290.791 192.873 293.877Z" fill="#FF7A00"/>
<path d="M330.492 209.437C337.578 197.518 373.007 191.431 379.809 200.943C361.953 195.564 347.342 208.814 330.492 209.437Z" fill="#FF7A00"/>
<path d="M244.202 373.433L257.07 384.659V388.396V388.311L252.819 390.081C250.636 391.015 247.83 391.496 246.385 393.039C244.103 395.559 247.306 402.835 239.554 400.683C246.286 397.045 238.137 390.265 241.637 387.518C247.476 382.974 245.775 379.025 243.253 374.155C243.579 373.929 243.891 373.646 244.202 373.433Z" fill="#FF7A00"/>
<path d="M329.912 656.113L318.022 654.4C317.738 654.074 317.469 653.735 317.228 653.395C308.853 648.058 300.463 642.764 292.145 637.356C290.383 636.068 288.699 634.678 287.1 633.194C289.707 633.831 292.768 633.775 294.837 635.219C305.537 642.891 316.264 650.139 330.422 648.256C330.634 650.479 330.861 652.687 331.074 654.895L329.912 656.113Z" fill="#FF7A00"/>
<path d="M58.2448 263.484L68.1648 277.456C69.1095 282.382 70.0543 287.309 70.9991 292.235L59.5485 281.745C70.6731 274.837 50.4363 270.152 58.2448 263.484Z" fill="#FF7A00"/>
<path d="M286.873 251.254C276.244 259.11 263.632 265.593 266.31 282.397C266.466 283.444 262.129 285.228 259.89 286.643C259.635 286.304 259.366 285.978 259.097 285.652C263.164 270.18 266.778 254.354 285.852 250.149L286.873 251.254Z" fill="#FF7A00"/>
<path d="M246.271 858.613C233.262 857.495 233.177 837.379 217.928 839.418C217.811 839.057 217.721 838.688 217.659 838.314C218.701 837.889 219.808 837.645 220.933 837.592C233.475 839.177 241.368 846.934 247.093 857.509L246.271 858.613Z" fill="#FF7A00"/>
<path d="M212.005 353.006C214.839 363.835 204.097 376.745 216.993 386.3C217.418 386.612 214.754 391.085 213.521 393.619C213.025 392.699 212.458 391.807 212.005 390.788C210.149 386.739 206.62 382.606 206.804 378.642C207.215 369.78 209.482 361.004 210.985 352.185L212.005 353.006Z" fill="#FF7A00"/>
<path d="M320.714 378.728C317.965 378.572 315.938 379.011 315.457 378.345C308.895 369.399 300.902 362.321 290.104 358.768C289.565 358.598 289.636 356.559 289.424 355.399C294.384 357.338 300.081 358.315 304.105 361.443C309.901 365.973 314.465 372.074 320.714 378.728Z" fill="#FF7A00"/>
<path d="M285.853 250.177C296.269 243.241 306.529 236.163 312.778 224.697C313.317 223.734 315.613 223.706 317.03 223.281C316.718 224.697 316.803 226.494 315.995 227.613C308.456 238.116 299.925 247.431 286.873 251.225L285.853 250.177Z" fill="#FF7A00"/>
<path d="M239.639 472.977L245.464 468.589L272.389 492.965C272.194 493.053 272.021 493.184 271.883 493.349C271.746 493.513 271.648 493.706 271.596 493.914C256.546 493.631 253.811 474.506 239.639 472.977Z" fill="#FF7A00"/>
<path d="M345.698 368.181C333.979 375.896 338.613 388.339 335.367 398.263L330.223 393.464C339.35 386.202 333.27 376.137 335.027 367.516C337.635 374.75 341.985 363.651 345.698 368.181Z" fill="#FF7A00"/>
<path d="M79.5018 278.928C79.1192 271.198 82.0668 265.38 89.2943 262.054C80.9331 272.501 87.2536 283.401 88.3164 294.145L87.2961 294.952L79.5018 278.928Z" fill="#FF7A00"/>
<path d="M229.308 604.203L233.135 597.408C235.331 598.824 239.356 600.239 239.37 601.655C239.37 604.826 237.471 608.039 236.323 611.239L229.96 604.996C229.719 604.699 229.535 604.387 229.308 604.203Z" fill="#FF7A00"/>
<path d="M173.983 355.753C172.821 353.417 171.673 351.067 170.511 348.675C177.412 345.843 184.3 343.012 191.272 340.351C191.768 340.153 192.803 341.384 193.596 341.965C192.079 342.863 190.513 343.676 188.906 344.4C185.519 345.716 182.103 347.783 178.645 347.882C172.623 348.052 173.104 350.713 174.904 354.648C174.592 355.059 174.295 355.413 173.983 355.753Z" fill="#FF7A00"/>
<path d="M225.779 292.234L224.646 303.361L215.179 290.975C216.294 290.215 217.448 289.516 218.637 288.879C220.352 291.173 229.138 284.774 225.779 292.234Z" fill="#FF7A00"/>
<path d="M279.22 695.353L269.626 690.823L274.558 686.689C276.995 693.144 281.927 678.195 283.486 687.666C283.84 689.747 280.963 692.38 279.22 695.353Z" fill="#FF7A00"/>
<path d="M88.3167 294.146C98.6761 300.573 91.1935 311.642 94.949 319.853C95.0198 320.009 93.6452 321.056 93.6027 321.014C92.5398 319.853 90.8393 318.89 90.6692 317.63C89.3654 310.099 88.3876 302.512 87.2964 294.981L88.3167 294.146Z" fill="#FF7A00"/>
<path d="M76.5401 315.762L72.4163 293.849C82.7614 298.336 78.0848 310.015 83.4558 316.894L76.5401 315.762Z" fill="#FF7A00"/>
<path d="M142.14 361.868C147.808 364.472 153.945 366.341 158.834 369.951C161.994 372.286 162.986 377.142 158.054 380.242C159.103 372.414 153.902 371.281 147.936 369.682C144.45 368.733 141.672 365.166 138.569 362.774L139.561 361.641L142.14 361.868Z" fill="#FF7A00"/>
<path d="M318.021 654.4C309.802 658.817 302.575 663.984 302.319 674.586C302.319 675.124 301.668 675.648 301.313 676.172C300.888 675.238 300.08 674.317 300.066 673.341C300.066 661.804 304.927 654.372 317.228 653.352C317.469 653.735 317.738 654.074 318.021 654.4Z" fill="#FF7A00"/>
<path d="M204.338 686.604L216.866 703.478L206.861 697.547L206.053 696.74C203.71 693.305 201.381 689.86 199.066 686.406L204.338 686.604Z" fill="#FF7A00"/>
<path d="M233.531 635.077C234.141 638.517 234.75 641.971 235.374 645.411C232.752 648.143 231.264 647.279 229.847 644.066C227.891 639.593 228.302 636.422 233.531 635.077Z" fill="#FF7A00"/>
<path d="M208.15 676.81L196.275 668.514L204.976 669.533C204.494 667.608 203.998 665.683 203.559 663.758L210.177 671.926L208.15 676.81Z" fill="#FF7A00"/>
<path d="M277.009 596.46C271.61 597.635 266.211 599.702 260.826 599.687C256.858 599.687 255.823 594.974 259.947 594.124C265.02 593.077 270.661 594.804 276.046 595.313L277.009 596.46Z" fill="#FF7A00"/>
<path d="M204.211 740.411L197.89 737.58L214.343 723.155L204.211 740.411Z" fill="#FF7A00"/>
<path d="M234.467 298.166L225.836 294.726C227.438 293.311 229.365 290.324 230.584 290.579C233.418 291.187 235.912 293.41 238.548 294.825L234.467 298.166Z" fill="#FF7A00"/>
<path d="M243.891 432.987C240.461 434.558 236.932 437.531 233.616 437.319C230.513 437.12 227.622 433.553 224.632 431.458C225.283 431.175 226.29 430.481 226.516 430.68C231.802 435.393 237.613 432.591 243.891 432.987Z" fill="#FF7A00"/>
<path d="M199.959 325.629L209.1 328.46L201.376 335.949L199.959 325.629Z" fill="#FF7A00"/>
<path d="M222.634 273.295L225.326 277.386C223.484 277.612 221.429 277.386 219.813 278.15C215.335 280.203 211.041 282.652 206.677 284.959C207.739 275.291 217.39 277.287 222.634 273.295Z" fill="#FF7A00"/>
<path d="M174.904 354.69C178.603 358.81 183.988 362.419 185.448 367.218C186.482 370.63 182.613 368.549 181.338 366.694C178.801 363.113 176.42 359.404 173.983 355.752C174.295 355.412 174.592 355.058 174.904 354.69Z" fill="#FF7A00"/>
<path d="M242.729 773.24C237.967 775.193 232.809 777.373 229.067 772.234C227.65 770.295 228.798 766.572 228.784 763.67C230.428 766.374 231.533 769.87 233.914 771.569C235.827 772.985 239.285 772.135 242.063 772.291L242.729 773.24Z" fill="#FF7A00"/>
<path d="M248.34 778.505L253.159 779.199C252.096 785.866 252.053 793.043 244.458 796.413L243.862 792.958C248.142 789.051 250.849 784.592 248.34 778.505Z" fill="#FF7A00"/>
<path d="M288.29 359.9C285.456 360.806 284.038 361.783 283.216 361.429C280.813 360.248 278.493 358.905 276.272 357.409C277.364 356.786 278.682 355.413 279.475 355.668C282.502 356.888 285.446 358.301 288.29 359.9Z" fill="#FF7A00"/>
<path d="M123.561 234.918C126.31 230.294 129.064 225.646 131.823 220.974C132.347 227.557 132.177 233.743 123.561 234.918Z" fill="#FF7A00"/>
<path d="M225.624 277.541L232.554 271.879L240.901 269.316C240.787 270.123 240.901 271.411 240.518 271.666C235.884 274.398 232.695 280.981 225.624 277.541Z" fill="#FF7A00"/>
<path d="M252.819 390.081L257.07 388.311V388.396V384.659L260.953 384.56C260.698 386.06 260.84 388.594 260.117 388.807C257.74 389.502 255.292 389.93 252.819 390.081Z" fill="#FF7A00"/>
<path d="M231.519 712.454C231.363 711.449 231.207 710.458 231.037 709.467C231.136 710.458 231.349 711.449 231.519 712.454Z" fill="#FF7A00"/>
<path d="M333.029 686.647L330.45 688.176L333.029 686.647Z" fill="#FF7A00"/>
<path d="M96.7483 258.388C97.2443 257.609 97.7403 256.831 98.1654 256.052C97.7403 256.831 97.2443 257.567 96.7483 258.388Z" fill="#FF7A00"/>
<path d="M278.228 468.958L279.291 467.315L278.228 468.958Z" fill="#FF7A00"/>
<path d="M336.133 685.246L333.299 686.548L336.133 685.246Z" fill="#FF7A00"/>
<path d="M206.053 696.726L206.861 697.533C206.67 697.475 206.497 697.371 206.356 697.23C206.216 697.089 206.111 696.917 206.053 696.726Z" fill="#FF7A00"/>
<path d="M271.596 493.971C271.648 493.763 271.746 493.57 271.884 493.406C272.021 493.241 272.194 493.11 272.39 493.023C272.591 493.386 272.752 493.771 272.871 494.169C272.436 494.224 271.994 494.155 271.596 493.971Z" fill="#FF7A00"/>
<path d="M279.419 467.075L279.249 466.028L279.674 466.481L279.419 467.075Z" fill="#FF7A00"/>
<path d="M119.04 304.281C118.956 304.097 118.912 303.896 118.912 303.694C118.912 303.491 118.956 303.291 119.04 303.106C119.061 303.498 119.061 303.89 119.04 304.281Z" fill="#FF7A00"/>
<path d="M299.911 476.135L300.039 476.533L299.669 476.476L299.911 476.135Z" fill="#FF7A00"/>
<path d="M454.889 418.944C462.273 424.125 475.877 413.933 479.335 428.854C479.647 430.269 479.945 431.543 480.256 432.902C479.018 432.334 477.84 431.642 476.742 430.835C460.898 416.538 445.14 422.413 429.579 431.232C427.737 432.279 427.028 435.323 425.781 437.446C435.049 441.438 444.204 445.94 453.657 449.167C456.732 450.243 460.827 448.36 464.469 447.837C464.299 448.403 464.2 449.436 463.945 449.465C458.744 450.271 452.395 453.188 448.526 451.234C437.586 445.727 427.567 439.499 416.046 449.295L414.94 448.36C422.522 433.907 431.096 420.629 449.575 419.029L454.889 418.944Z" fill="#FF7A00"/>
<path d="M549.016 219.884C546.862 232.624 545.105 245.364 542.37 257.892C541.165 263.385 537.92 268.566 530.891 268.311C529.049 268.24 527.263 266.966 525.449 266.23C529.275 263.399 534.93 261.247 536.531 257.439C539.365 250.772 540.074 243.099 540.896 235.767C541.619 229.255 538.869 221.611 548.123 218.779L549.016 219.884Z" fill="#FF7A00"/>
<path d="M122.657 344.243C120.503 356.983 118.746 369.724 116.011 382.252C114.806 387.744 111.561 392.925 104.532 392.67C102.69 392.599 100.904 391.325 99.0901 390.589C102.916 387.758 108.571 385.606 110.172 381.799C113.006 375.131 113.715 367.459 114.537 360.126C115.26 353.614 112.51 345.97 121.764 343.139L122.657 344.243Z" fill="#FF7A00"/>
<path d="M503.389 482.166C490.894 485.459 478.563 489.112 466.022 491.788C460.522 492.956 454.463 492.136 451.796 485.628C451.101 483.921 451.525 481.768 451.448 479.812C455.605 482.13 459.897 486.394 464.027 486.282C471.27 486.114 478.551 483.595 485.57 481.32C491.8 479.292 497.63 473.635 504.026 480.897L503.389 482.166Z" fill="#FF7A00"/>
<path d="M397.325 243.1C402.739 249.399 409.13 255.132 413.24 262.196C416.216 267.349 415.379 269.897 406.409 271.242C398.969 272.36 405.856 285.143 405.785 292.745L404.751 293.552C390.877 278.9 410.207 258.615 396.319 244.006L397.325 243.1Z" fill="#FF7A00"/>
<path d="M436.622 338.44C437.359 326.719 438.124 314.998 438.776 303.262C438.776 302.979 437.359 302.272 437.246 302.356C434.624 305.57 432.087 308.84 429.551 312.11L443.269 288.186L443.779 290.536C435.701 304.381 446.386 319.287 441.299 333.231C440.548 335.269 438.21 336.713 436.622 338.44Z" fill="#FF7A00"/>
<path d="M529.701 344.838C533.64 333.514 530.239 319.358 542.455 311.19C542.71 311.515 542.951 311.855 543.192 312.195L530.735 345.914L529.701 344.838Z" fill="#FF7A00"/>
<path d="M604.88 310.666C595.243 300.389 585.422 291.032 570.401 302.016L569.366 300.941C574.624 297.869 579.952 292.15 585.125 292.306C595.342 292.603 601.167 301.054 605.673 309.717C605.404 310.015 605.135 310.34 604.88 310.666Z" fill="#FF7A00"/>
<path d="M499.274 286.331C499.416 296.821 499.6 307.296 499.614 317.786C499.614 318.352 498.296 318.932 497.588 319.513C496.653 313.85 495.576 308.188 494.867 302.526C494.711 301.252 495.859 299.822 496.397 298.477C496.993 300.615 497.574 302.724 498.296 305.343V285.609C498.622 285.878 498.977 286.076 499.274 286.331Z" fill="#FF7A00"/>
<path d="M513.517 388.283C504.277 400.881 498.694 414.57 500.763 430.566C500.763 431.118 500.21 431.755 499.912 432.35C499.501 431.897 498.764 431.472 498.736 430.934C497.461 414.57 495.732 398.05 512.525 387.405L513.517 388.283Z" fill="#FF7A00"/>
<path d="M427.51 319.981C429.126 328.748 430.746 337.511 432.371 346.268C431.181 349.453 430.004 352.653 428.814 355.838L427.68 354.819L427.51 319.981Z" fill="#FF7A00"/>
<path d="M420.013 377.057L425.682 378.472C424.265 381.643 423.542 386.881 421.346 387.589C415.309 389.556 420.099 382.238 418.922 382.733C414.813 384.446 411.185 387.32 407.387 389.811L406.466 388.792L419.007 376.193L420.013 377.057Z" fill="#FF7A00"/>
<path d="M548.988 406.685C541.321 411.116 533.683 415.589 525.945 419.893C525.336 420.233 524.103 419.454 523.111 419.199C526.654 415.731 529.701 411.329 533.895 409.064C538.09 406.799 543.348 406.728 548.138 405.694C548.435 406.034 548.719 406.36 548.988 406.685Z" fill="#FF7A00"/>
<path d="M454.89 418.945H449.575L445.21 412.419H459.155L454.89 418.945Z" fill="#FF7A00"/>
<path d="M397.835 375.925L408.251 383.003C406.834 383.81 405.233 385.565 404.226 385.254C400.839 384.206 394.306 394.059 394.136 382.621C394.108 380.724 396.163 378.799 397.835 375.925Z" fill="#FF7A00"/>
<path d="M398.7 309.081C395.043 319.009 391.378 328.918 387.703 338.808L386.682 338.015C383.38 325.501 391.43 317.192 397.779 308.288L398.7 309.081Z" fill="#FF7A00"/>
<path d="M570.401 302.016L543.234 312.194C542.993 311.854 542.752 311.514 542.497 311.189L569.423 300.94L570.401 302.016Z" fill="#FF7A00"/>
<path d="M428.814 355.838C429.863 364.558 426.377 371.409 420.014 377.071L418.979 376.166C421.88 369.059 424.78 361.948 427.681 354.833L428.814 355.838Z" fill="#FF7A00"/>
<path d="M338.839 288.866C340.115 285.695 340.753 281.151 345.769 283.529C348.008 284.59 349.454 287.365 351.254 289.375L338.839 288.795V288.866Z" fill="#FF7A00"/>
<path d="M407.358 389.769C406.834 391.057 406.366 392.36 405.799 393.634L398.714 409.205C398.189 408.823 397.169 408.2 397.226 408.087C400.258 401.604 403.362 395.148 406.465 388.693L407.358 389.769Z" fill="#FF7A00"/>
<path d="M395.228 379.619C391.926 382.451 389.984 385.282 388.865 384.942C386.54 384.319 384.613 382.111 382.587 380.511C384.004 379.535 385.421 377.892 386.994 377.765C389.006 377.595 391.132 378.614 395.228 379.619Z" fill="#FF7A00"/>
<path d="M523.337 365.548C524.528 375.061 520.631 382.366 513.516 388.283L512.468 387.476L522.388 364.826L523.337 365.548Z" fill="#FF7A00"/>
<path d="M498.297 285.61C499.218 281.83 499.119 277.187 501.372 274.526C503.229 272.317 507.962 271.44 511.292 271.765C515.359 272.176 513.871 274.257 511.051 274.965C509.521 275.347 506.8 274.243 506.318 274.965C503.696 278.518 501.613 282.481 499.331 286.289C498.977 286.077 498.623 285.879 498.297 285.61Z" fill="#FF7A00"/>
<path d="M522.345 364.841C523.621 357.763 520.078 348.873 529.7 344.838L530.777 345.914L523.337 365.548L522.345 364.841Z" fill="#FF7A00"/>
<path d="M489.439 458.044L501.839 459.459C500.068 460.875 498.126 463.451 496.539 463.253C492.529 462.758 488.674 460.988 484.763 459.728L489.439 458.044Z" fill="#FF7A00"/>
<path d="M405.786 292.745C414.161 302.838 402.951 304.451 398.7 309.08L397.779 308.288L404.751 293.551L405.786 292.745Z" fill="#FF7A00"/>
<path d="M416.046 449.267C413.325 454.297 410.613 459.322 407.911 464.343C407.316 463.96 406.168 463.281 406.182 463.253C409.017 458.256 411.993 453.343 414.94 448.332L416.046 449.267Z" fill="#FF7A00"/>
<path d="M387.703 338.836C385.789 342.998 383.876 347.159 381.878 351.265C381.286 351.154 380.706 350.984 380.149 350.755L386.682 338.015L387.703 338.836Z" fill="#FF7A00"/>
<path d="M418.2 201.056L419.716 203.887C419.234 202.981 418.724 202.019 418.2 201.056Z" fill="#FF7A00"/>
<path d="M625.102 314.261L624.847 317.531L625.102 314.261Z" fill="#FF7A00"/>
<path d="M420.906 203.944L422.451 202.359L420.906 203.944Z" fill="#FF7A00"/>
<path d="M419.617 199.697L418.2 201.113L419.617 199.697Z" fill="#FF7A00"/>
<path d="M346.195 429.207C346.195 428.613 346.195 428.018 346.195 427.424C346.209 428.018 346.195 428.613 346.195 429.207Z" fill="#FF7A00"/>
<path d="M204.111 117.423L177.752 124.501L175.768 124.062C182.259 121.231 188.806 118.584 195.197 115.569C196.785 114.818 197.862 113.049 199.18 111.761C197.862 110.812 196.345 108.859 195.24 109.099C186.737 111.039 178.234 113.474 169.731 115.597C167.461 116.032 165.156 116.269 162.844 116.305C162.621 115.861 162.477 115.382 162.419 114.889C167.138 112.723 171.744 110.062 176.69 108.689C181.919 107.273 189.047 108.873 192.576 105.858C199.208 100.266 211.821 92.1265 192.42 85.7563L193.185 84.7371L208.561 80.8867L210.574 82.5287C207.456 93.9384 198.4 104.301 204.111 117.423Z" fill="#FF7A00"/>
<path d="M211.296 142.451C217.815 144.305 217.234 130.772 225.298 136.01C224.428 136.965 223.48 137.846 222.463 138.643C211.608 146.117 214.372 158.461 213.677 168.37C213.082 177.034 223.243 171.57 228.203 173.396C242.19 178.591 259.38 169.588 271.284 183.192L270.491 184.338C253.485 177.161 234.509 182.47 218.198 177.727C201.376 172.858 214.287 154.427 211.296 142.451Z" fill="#FF7A00"/>
<path d="M293.349 150.393C284.549 163.134 281.785 176.808 286.419 191.771L270.533 184.382L271.327 183.235L293.349 150.393Z" fill="#FF7A00"/>
<path d="M210.574 82.4722L208.561 80.8301C208.632 66.5468 227.806 69.7602 230.697 55.9015C232.114 49.0642 233.12 63.0927 238.293 60.2757C240.362 61.9084 242.426 63.541 244.486 65.1737C235.855 78.1263 251.671 84.0435 252.748 94.1508C252.989 96.4299 251.642 98.8789 251.033 101.229C243.565 89.9041 246.371 70.8502 228.784 67.75C220.508 66.3203 215.023 75.4225 210.574 82.4722Z" fill="#FF7A00"/>
<path d="M122.342 76.9093C116.929 93.047 111.671 109.241 105.946 125.266C104.982 127.941 101.964 129.881 99.8945 132.16C100.518 129.937 100.575 127.319 101.836 125.563C112.592 110.714 103.877 88.2199 121.35 76.0175C121.69 76.3714 122.016 76.6262 122.342 76.9093Z" fill="#FF7A00"/>
<path d="M192.42 85.6999C187.247 88.0356 175.655 81.9061 179.17 95.7364C179.213 96.3928 179.05 97.0464 178.702 97.605C176.491 97.2086 173.983 97.2228 172.169 96.1186C164.205 91.249 162.249 99.4453 157.997 102.39C157.7 102.05 157.431 101.71 157.161 101.37C165.778 88.4037 177.285 81.7221 193.27 84.7373L192.42 85.6999Z" fill="#FF7A00"/>
<path d="M94.9913 167.068L115.752 175.278L118.147 177.586C114.321 183.715 120.316 187.169 122.03 191.742C111.94 188.911 111.232 172.929 97.9389 174.684C97.3154 172.037 86.6868 173.141 94.9913 167.068Z" fill="#FF7A00"/>
<path d="M175.868 186.136C158.111 199.329 148.715 169.389 131.936 177.642C136.542 170.748 145.583 171.47 148.12 175.292C155.361 186.207 166.387 183.432 175.868 186.136Z" fill="#FF7A00"/>
<path d="M95.8133 96.7833C90.1447 82.1178 91.1226 69.3633 106.059 60.5159L107.094 61.3369C95.8275 70.5666 96.1818 83.2078 96.8762 95.9623L95.8133 96.7833Z" fill="#FF7A00"/>
<path d="M203.658 65.3437C201.164 61.5641 198.443 59.0443 198.939 57.8694C199.945 55.4629 202.68 53.7783 204.707 51.8107C206.124 53.3961 208.958 55.2223 208.661 56.5388C208.25 59.0444 206.124 61.2668 203.658 65.3437Z" fill="#FF7A00"/>
<path d="M157.912 102.333C151.649 106.735 145.399 111.166 139.064 115.469C138.639 115.767 137.534 115.073 136.74 114.832C140.581 111.053 144.138 106.877 148.417 103.663C150.642 101.993 154.086 102.035 157.076 101.314C157.345 101.653 157.615 101.993 157.912 102.333Z" fill="#FF7A00"/>
<path d="M69.2558 186.788C67.5836 185.471 65.6138 183.957 63.7715 182.314C64.2923 181.503 64.8601 180.724 65.4721 179.979C75.3921 189.038 81.7976 169.036 91.5192 176.949L69.2558 186.788Z" fill="#FF7A00"/>
<path d="M107.845 168.257C100.66 172.065 98.6334 157.357 90.8391 163.515L91.902 158.377L109.106 165.837L107.845 168.257Z" fill="#FF7A00"/>
<path d="M175.769 124.005L177.753 124.444C178.646 127.105 191.343 123.694 181.551 131.833C180.134 131.196 178.617 130.078 177.101 129.993C172.453 129.724 168.74 137.595 163.354 131.564L175.769 124.005Z" fill="#FF7A00"/>
<path d="M107.845 168.257L109.049 165.837C119.451 163.119 117.255 174.16 121.988 177.643H118.105L115.71 175.335L107.845 168.257Z" fill="#FF7A00"/>
<path d="M173.033 16.8032C173.133 8.0407 176.874 11.5655 180.473 14.6232C178.754 17.2373 177.044 19.8562 175.343 22.4797C174.621 20.597 173.841 18.7001 173.033 16.8032Z" fill="#FF7A00"/>
<path d="M98.7183 185.499C110.396 188.982 114.604 200.108 121.889 208.149L98.7183 185.499Z" fill="#FF7A00"/>
<path d="M188.792 140.285C196.133 143.399 204.763 124.94 211.296 141.615L188.792 140.285Z" fill="#FF7A00"/>
<path d="M81.84 168.384C85.9498 167.153 83.8524 168.384 83.2572 167.86C79.5301 164.435 76.1715 160.655 72.6995 156.889C72.5861 156.762 73.7765 155.474 74.3575 154.681C77.2201 159.891 80.0544 165.114 81.84 168.384Z" fill="#FF7A00"/>
<path d="M96.876 95.9628C103.168 106.424 92.6246 113.445 91.4058 122.378C91.4058 122.562 90.343 122.604 89.7761 122.717C89.8931 119.985 90.2056 117.265 90.7114 114.578C92.2278 108.59 94.0984 102.701 95.8132 96.7838L96.876 95.9628Z" fill="#FF7A00"/>
<path d="M60.3702 227.698C57.0966 230.317 55.2401 232.242 52.9869 233.36C52.4342 233.615 50.5494 231.01 49.2739 229.722C50.975 227.863 52.876 226.197 54.9425 224.753C55.6936 224.3 57.5926 226.07 60.3702 227.698Z" fill="#FF7A00"/>
<path d="M83.4272 233.884L76.4265 229.255C78.8879 227.469 81.4527 225.828 84.1075 224.343C84.4617 224.159 87.0835 226.665 86.9418 227.528C86.4316 229.524 84.9011 231.322 83.4272 233.884Z" fill="#FF7A00"/>
<path d="M123.717 53.5656C125.828 61.4929 127.784 69.4202 122.3 76.9087C121.974 76.6256 121.648 76.3424 121.308 76.0735C121.761 68.7973 122.205 61.5259 122.64 54.2592L123.717 53.5656Z" fill="#FF7A00"/>
<path d="M257.779 207.442L262.866 209.777C260.939 210.839 259.111 212.339 257.042 212.778C256.007 212.991 254.562 211.264 253.301 210.414L257.779 207.442Z" fill="#FF7A00"/>
<path d="M182.953 134.41L188.494 140.186L172.906 141.191L182.953 134.41Z" fill="#FF7A00"/>
<path d="M293.575 149.982C311.913 117.126 282.522 131.792 271.652 127.899C269.922 127.057 268.295 126.016 266.806 124.799C280.594 126.795 294.072 127.007 305.99 118.089C305.309 122.123 304.573 126.144 303.977 130.178C302.9 138.049 300.378 145.113 293.575 149.982Z" fill="#FF7A00"/>
<path d="M377.062 463.436C342.891 428.335 350.255 470.46 341.355 482.573C339.66 484.419 337.757 486.061 335.684 487.466C343.304 471.006 348.582 454.27 341.889 436.083C346.669 438.433 351.411 440.848 356.223 443.091C365.642 447.363 373.517 453.138 377.062 463.436Z" fill="#FF7A00"/>
<path d="M309.49 95.0568C310.284 96.3167 309.278 94.5048 308.073 92.8344C306.358 90.4562 304.502 88.1629 302.702 85.8413C302.121 87.809 301.923 90.0032 300.874 91.6594C299.825 93.3156 299.287 99.162 295.517 94.4198C294.398 93.0042 296.382 88.6867 297.629 86.0254C298.592 84.0011 301.398 80.7452 302.064 81.0283C307.96 83.5905 313.557 86.8181 319.24 89.8474C313.501 89.1113 322.004 100.889 309.49 95.0568Z" fill="#FF7A00"/>
<path d="M412.247 119.915L413.82 121.613C408.407 130.73 403.008 139.846 397.537 148.92C397.197 149.486 396.319 149.713 395.695 150.095C395.458 148.988 395.4 147.851 395.525 146.726C398.487 136.18 400.967 125.294 412.247 119.915Z" fill="#FF7A00"/>
<path d="M336.359 127.998C333.653 133.165 331.102 138.063 328.551 142.975C328.041 141.871 326.893 140.639 327.134 139.705C328.664 133.236 330.478 126.837 332.193 120.411L336.359 127.998Z" fill="#FF7A00"/>
<path d="M353.833 197.361C351.863 194.389 350.106 192.704 350.432 192.039C352.025 189.094 353.81 186.257 355.774 183.545C356.228 184.182 357.192 184.961 357.078 185.456C356.299 188.896 355.278 192.223 353.833 197.361Z" fill="#FF7A00"/>
<path d="M266.452 124.501L251.614 120.255L255.242 117.494C256.943 123.086 267.274 114.861 266.452 124.501Z" fill="#FF7A00"/>
<path d="M430.954 133.378C430.954 133.703 430.954 134.043 430.954 134.368C428.842 131.693 426.702 129.018 424.69 126.257C424.605 126.13 425.739 125.11 426.306 124.516C427.85 127.46 429.381 130.419 430.954 133.378Z" fill="#FF7A00"/>
<path d="M67.4703 297.614C69.6385 301.153 71.2824 302.824 71.7218 304.692C71.9768 306.108 70.4888 307.707 69.7803 309.236C68.1364 307.453 66.0815 305.881 65.0328 303.8C64.4801 302.866 66.039 300.969 67.4703 297.614Z" fill="#FF7A00"/>
<path d="M178.702 764.533C178.702 764.986 178.603 765.425 178.532 765.864C178.461 765.643 178.44 765.41 178.469 765.18C178.499 764.95 178.578 764.729 178.702 764.533Z" fill="#FF7A00"/>
<path d="M99.2284 249.314C98.8741 250.73 98.5057 252.301 98.1514 253.787C98.5057 252.301 98.8741 250.8 99.2284 249.314Z" fill="#FF7A00"/>
<path d="M168.782 206.875L167.365 206.761C169.448 196.852 143.472 215.128 155.772 195.309C158.182 191.431 162.39 189.166 167.025 192.974C171.914 196.994 171.163 201.849 168.782 206.875Z" fill="#FF7A00"/>
<path d="M163 209.508C153.08 206.677 140.737 213.755 132.73 202.43C144.039 199.599 154.2 201.623 163 209.508Z" fill="#FF7A00"/>
<path d="M204.353 117.607L217.674 110.062L218.836 111.096C217.008 116.616 211.098 122.335 219.615 127.375C210.801 129.923 210.63 118.995 204.353 117.607Z" fill="#FF7A00"/>
<path d="M219.927 127.559L231.179 130.942L225.51 135.783L219.927 127.559Z" fill="#FF7A00"/>
<path d="M226.885 109.765L218.85 111.095L217.688 110.062C222.109 106.098 226.757 99.2608 232.794 102.602C239.88 106.565 225.709 104.357 229.747 109.099L226.885 109.765Z" fill="#FF7A00"/>
<path d="M247.023 143.626L236.521 136.548C237.159 135.968 237.939 134.765 238.406 134.892C243.607 136.619 248.751 138.53 253.896 140.399L247.023 143.626Z" fill="#FF7A00"/>
<path d="M226.885 110.345L228.472 111.888L226.885 110.345Z" fill="#FF7A00"/>
<path d="M112.159 576.39C111.41 576.13 109.799 576 107.325 576H82.2273C80.5346 576 79.1837 575.739 78.1746 575.218C77.1654 574.665 76.6609 573.672 76.6609 572.24C76.6609 571.198 76.905 570.368 77.3933 569.75C78.6303 570.075 79.8184 570.238 80.9578 570.238C82.0971 570.238 82.9923 570.124 83.6433 569.896C84.2944 569.636 84.864 569.196 85.3523 568.578C86.3289 567.276 86.8171 565.111 86.8171 562.084V513.06C86.8171 510.033 85.0268 508.145 81.446 507.396C79.2 506.94 77.7351 506.42 77.0515 505.834C76.3679 505.248 76.0261 504.613 76.0261 503.929C76.0261 502.432 76.2865 501.423 76.8074 500.902C77.3933 501.065 77.9304 501.146 78.4187 501.146H90.5281L107.911 500.658C123.145 500.658 132.781 504.808 136.817 513.109C138.282 516.104 139.014 519.099 139.014 522.093C139.014 525.088 138.803 527.644 138.38 529.759C137.956 531.875 137.224 533.942 136.182 535.961C135.173 537.946 133.822 539.834 132.13 541.625C130.437 543.382 128.321 544.929 125.782 546.263C120.281 549.128 113.249 550.56 104.688 550.56H102.833C101.921 550.56 101.466 549.974 101.466 548.802C101.466 546.231 102.165 544.782 103.565 544.457C115.805 544.717 123.21 541.071 125.782 533.519C126.563 531.143 126.954 528.604 126.954 525.902C126.954 523.2 126.661 520.726 126.075 518.48C125.489 516.201 124.431 514.183 122.901 512.425C119.516 508.584 113.917 506.664 106.104 506.664C102.947 506.664 100.847 507.347 99.8054 508.714C98.8289 509.919 98.3406 512.36 98.3406 516.039V564.818C98.5033 567.357 100.522 568.903 104.395 569.457C107.878 569.945 110.043 570.401 110.889 570.824C111.736 571.247 112.289 571.67 112.55 572.093C112.81 572.484 112.94 572.972 112.94 573.558C112.94 574.795 112.68 575.739 112.159 576.39ZM200.44 554.271C201.319 553.522 202.247 553.148 203.223 553.148C204.721 553.148 205.583 553.36 205.811 553.783C207.081 556.322 207.716 560.521 207.716 566.38C207.716 570.45 207.26 573.395 206.348 575.218C206.055 575.739 205.746 576 205.421 576H151.514C147.641 576 145.704 574.844 145.704 572.533C145.704 571.296 145.964 570.352 146.485 569.701C147.592 570.026 148.666 570.189 149.708 570.189C150.749 570.189 151.645 570.108 152.393 569.945C153.142 569.782 153.842 569.44 154.493 568.92C156.055 567.715 156.837 565.681 156.837 562.816V513.353C156.837 510.521 155.697 508.714 153.419 507.933C152.768 507.705 152.084 507.51 151.368 507.347C150.684 507.152 150.017 506.973 149.366 506.81C148.747 506.615 148.194 506.403 147.706 506.175C146.599 505.589 146.046 504.792 146.046 503.783C146.046 502.448 146.306 501.488 146.827 500.902C147.413 501.065 147.999 501.146 148.585 501.146H198.536C201.531 501.146 203.402 501.423 204.151 501.976C205.518 502.953 206.202 505.101 206.202 508.422C206.202 511.612 205.925 514.216 205.372 516.234C204.851 518.252 204.477 519.457 204.249 519.847C203.923 520.433 203.288 520.726 202.344 520.726C200.977 520.726 200.033 520.563 199.512 520.238C199.024 519.88 198.764 519.619 198.731 519.457C198.308 514.802 197.576 511.839 196.534 510.57C195.492 509.268 194.255 508.389 192.823 507.933C191.423 507.445 189.584 507.201 187.305 507.201H176.417C172.966 507.201 170.85 507.543 170.069 508.226C169.32 508.91 168.848 509.707 168.653 510.619C168.458 511.498 168.36 512.637 168.36 514.037V534.838L171.241 534.886C178.435 534.886 185.108 534.252 191.26 532.982C191.716 533.21 192.123 533.861 192.481 534.935C192.839 535.977 193.018 537.019 193.018 538.06C193.018 539.818 192.725 541.348 192.139 542.65C189.991 542.845 187.517 542.943 184.718 542.943C181.918 542.943 176.466 542.487 168.36 541.576V563.597C168.36 566.039 169.011 567.683 170.313 568.529C171.42 569.245 173.406 569.603 176.27 569.603L183.643 569.408C190.772 569.147 195.411 568.155 197.559 566.429C198.764 565.453 199.561 564.167 199.952 562.572C200.343 560.977 200.538 559.382 200.538 557.787C200.538 556.159 200.505 554.987 200.44 554.271ZM263.673 570.238C265.04 570.466 266.065 570.58 266.749 570.58C267.432 570.58 268.1 570.515 268.751 570.384C269.434 570.222 270.037 569.977 270.557 569.652C271.729 568.936 272.315 567.813 272.315 566.283C272.315 565.013 271.925 563.597 271.143 562.035L266.553 550.658H235.645L230.177 564.525C229.656 565.795 229.395 566.722 229.395 567.308C229.395 567.862 229.477 568.285 229.639 568.578C229.835 568.838 230.111 569.066 230.469 569.261C230.86 569.457 231.332 569.619 231.885 569.75L233.887 570.287C236.036 570.645 237.419 570.97 238.038 571.263C239.307 571.882 239.942 572.793 239.942 573.998C239.942 574.877 239.698 575.625 239.21 576.244C238.591 576.081 238.022 576 237.501 576H217.628C213.298 576 211.134 574.811 211.134 572.435C211.134 571.328 211.378 570.433 211.866 569.75C213.07 570.075 214.08 570.238 214.893 570.238C215.74 570.238 216.44 570.108 216.993 569.847C217.579 569.587 218.132 569.147 218.653 568.529C219.532 567.455 220.557 565.306 221.729 562.084L245.85 503.685C246.534 502.123 248.471 501.048 251.661 500.463C252.54 500.3 253.468 500.218 254.444 500.218C256.43 500.218 257.65 500.755 258.106 501.83L262.989 514.037C272.397 536.237 277.833 549.193 279.298 552.904L283.692 564.427C284.571 566.934 285.303 568.48 285.889 569.066C286.475 569.652 287.11 570.059 287.794 570.287C288.477 570.515 289.177 570.71 289.893 570.873C290.642 571.003 291.293 571.182 291.846 571.41C293.083 571.963 293.702 572.81 293.702 573.949C293.702 574.828 293.458 575.576 292.969 576.195C292.351 576.032 291.798 575.951 291.309 575.951H268.018C266.358 575.951 265.056 575.755 264.112 575.365C263.201 574.942 262.745 574.307 262.745 573.461C262.745 571.996 263.054 570.922 263.673 570.238ZM263.721 543.724L250.928 512.084L238.38 543.724H263.721ZM331.251 576.488L315.04 575.951H302.686C300.994 575.951 299.578 575.674 298.438 575.121C297.299 574.535 296.729 573.819 296.729 572.972C296.729 571.41 296.973 570.319 297.462 569.701C298.568 570.026 299.74 570.189 300.977 570.189C302.214 570.189 303.223 570.108 304.005 569.945C304.818 569.782 305.535 569.44 306.153 568.92C307.585 567.748 308.302 565.713 308.302 562.816V513.06C308.302 510.033 306.462 508.145 302.784 507.396C300.44 506.908 298.927 506.387 298.243 505.834C297.592 505.248 297.266 504.613 297.266 503.929C297.266 502.432 297.527 501.423 298.048 500.902C298.634 501.065 299.187 501.146 299.708 501.146C299.708 501.146 304.542 501.146 314.21 501.146C315.707 501.146 317.725 501.065 320.264 500.902C322.836 500.739 326.4 500.658 330.958 500.658C335.548 500.658 339.649 501.081 343.262 501.927C346.908 502.774 349.903 503.962 352.247 505.492C356.739 508.454 358.985 512.621 358.985 517.992C358.985 524.112 356.413 529.06 351.27 532.836C349.35 534.235 346.892 535.44 343.897 536.449C353.5 537.23 359.669 540.908 362.403 547.484C363.249 549.6 363.673 552.123 363.673 555.052C363.673 557.95 363.005 560.765 361.671 563.5C360.336 566.201 358.318 568.513 355.616 570.433C350.017 574.47 341.895 576.488 331.251 576.488ZM319.678 534.496L327.052 534.545C328.516 534.545 330.258 534.545 332.276 534.545C334.327 534.545 336.329 534.186 338.282 533.47C340.235 532.722 341.863 531.729 343.165 530.492C345.834 527.953 347.169 524.698 347.169 520.726C347.169 516.201 346.062 512.881 343.848 510.765C341.244 508.194 336.736 506.908 330.323 506.908C325.961 506.908 323.243 507.315 322.169 508.129C321.127 508.942 320.443 509.903 320.118 511.009C319.825 512.084 319.678 513.5 319.678 515.257V534.496ZM331.446 540.99C326.14 540.99 322.218 541.022 319.678 541.088V564.232C319.678 567.52 321.827 569.359 326.124 569.75C327.458 569.847 329.314 569.896 331.69 569.896C334.066 569.896 336.557 569.652 339.161 569.164C341.765 568.675 344.011 567.845 345.899 566.673C349.838 564.2 351.807 560.277 351.807 554.906C351.807 545.629 345.02 540.99 331.446 540.99ZM403.858 576.39C403.109 576.13 401.498 576 399.024 576H378.663C376.97 576 375.619 575.739 374.61 575.218C373.601 574.665 373.096 573.672 373.096 572.24C373.096 571.198 373.341 570.368 373.829 569.75C375.131 570.075 376.319 570.238 377.393 570.238C378.5 570.238 379.363 570.124 379.981 569.896C380.632 569.668 381.186 569.261 381.641 568.675C382.65 567.438 383.188 565.404 383.253 562.572V512.67C383.253 510.098 382.537 508.487 381.104 507.836C380.649 507.608 380.03 507.412 379.249 507.25C378.468 507.087 377.686 506.924 376.905 506.761C376.156 506.566 375.522 506.338 375.001 506.078C373.959 505.557 373.438 504.678 373.438 503.441C373.438 502.237 373.682 501.341 374.171 500.755C374.919 501.016 376.531 501.146 379.005 501.146H398.878C400.57 501.146 401.921 501.423 402.93 501.976C403.972 502.497 404.493 503.474 404.493 504.906C404.493 505.98 404.233 506.81 403.712 507.396C402.475 507.071 401.124 506.908 399.659 506.908C396.501 506.908 394.874 509.479 394.776 514.623V564.476C394.776 567.048 395.492 568.675 396.925 569.359C397.38 569.554 397.999 569.733 398.78 569.896C399.561 570.059 400.326 570.238 401.075 570.433C401.856 570.596 402.507 570.808 403.028 571.068C404.102 571.621 404.639 572.5 404.639 573.705C404.639 574.844 404.379 575.739 403.858 576.39ZM445.509 576.39C444.76 576.13 443.165 576 440.723 576H420.802C419.109 576 417.758 575.739 416.749 575.218C415.74 574.665 415.235 573.672 415.235 572.24C415.235 571.198 415.479 570.368 415.968 569.75C417.205 570.075 418.393 570.238 419.532 570.238C420.671 570.238 421.566 570.124 422.218 569.896C422.869 569.636 423.438 569.196 423.927 568.578C424.903 567.276 425.391 565.111 425.391 562.084V512.132C425.294 509.854 424.545 508.405 423.145 507.787C422.722 507.591 422.136 507.412 421.387 507.25C420.671 507.087 419.955 506.924 419.239 506.761C418.555 506.566 417.969 506.338 417.481 506.078C416.505 505.557 416.016 504.873 416.016 504.027C416.016 502.497 416.277 501.407 416.798 500.755C417.546 501.016 419.158 501.146 421.632 501.146H427.979L445.118 500.658L447.218 500.609C457.244 500.609 464.747 502.399 469.727 505.98C474.708 509.528 477.198 514.541 477.198 521.019C477.198 525.869 475.619 530.329 472.462 534.398C468.946 538.923 464.096 541.983 457.911 543.578C459.604 544.75 461.524 546.898 463.673 550.023L468.848 557.591C473.699 564.655 477.719 568.187 480.909 568.187C482.113 568.187 483.025 568.073 483.643 567.845L484.864 567.357C485.124 567.259 485.417 567.211 485.743 567.211C486.068 567.211 486.41 567.471 486.768 567.992C487.126 568.48 487.305 569.05 487.305 569.701C487.305 570.352 487.029 571.133 486.475 572.045C485.922 572.923 485.141 573.721 484.132 574.437C481.853 576.097 479.363 576.927 476.661 576.927C473.959 576.927 471.729 576.472 469.971 575.56C468.246 574.649 466.651 573.461 465.186 571.996C463.754 570.498 462.436 568.806 461.231 566.918C460.059 565.03 458.953 563.093 457.911 561.107L455.03 555.297C452.979 551.065 451.335 548.347 450.098 547.142C448.894 545.905 447.787 545.287 446.778 545.287H441.846C441.033 545.287 440.626 544.701 440.626 543.529C440.626 541.901 441.244 540.632 442.481 539.72C442.904 539.427 444.174 539.265 446.29 539.232C448.406 539.167 450.782 538.711 453.419 537.865C456.088 537.019 458.285 535.863 460.01 534.398C463.363 531.501 465.04 527.432 465.04 522.191C465.04 517.797 463.575 514.2 460.645 511.4C457.325 508.242 452.703 506.631 446.778 506.566C442.872 506.566 440.268 507.152 438.966 508.324C437.663 509.431 436.98 511.53 436.915 514.623V564.476C436.915 567.048 437.631 568.675 439.063 569.359C439.519 569.554 440.121 569.733 440.87 569.896C441.619 570.059 442.335 570.238 443.018 570.433C443.734 570.596 444.337 570.808 444.825 571.068C445.802 571.589 446.29 572.289 446.29 573.168C446.29 574.665 446.029 575.739 445.509 576.39ZM561.427 506.859C558.953 506.859 557.667 509.431 557.569 514.574V543.871C557.569 554.613 554.916 562.816 549.61 568.48C544.402 574.112 536.964 576.927 527.296 576.927C519.093 576.927 512.371 574.86 507.13 570.726C500.489 565.55 497.169 556.957 497.169 544.945V511.351C497.136 509.951 496.973 508.975 496.68 508.422C496.42 507.868 495.802 507.494 494.825 507.298C493.848 507.103 492.969 506.924 492.188 506.761C491.44 506.566 490.805 506.338 490.284 506.078C489.242 505.557 488.721 504.678 488.721 503.441C488.721 502.302 488.982 501.407 489.503 500.755C490.251 501.016 491.863 501.146 494.337 501.146H513.282C516.993 501.146 518.848 502.399 518.848 504.906C518.848 506.013 518.604 506.843 518.116 507.396C516.912 507.071 515.772 506.908 514.698 506.908C513.656 506.908 512.81 507.038 512.159 507.298C511.54 507.526 510.971 507.95 510.45 508.568C509.278 509.968 508.692 512.132 508.692 515.062V541.527C508.692 551.586 510.71 558.812 514.747 563.207C517.872 566.56 522.201 568.236 527.735 568.236C541.733 568.236 548.731 559.512 548.731 542.064V512.67C548.731 510.098 548.015 508.487 546.583 507.836C546.127 507.608 545.492 507.412 544.678 507.25C543.897 507.087 543.116 506.924 542.335 506.761C541.586 506.566 540.951 506.338 540.43 506.078C539.389 505.557 538.868 504.678 538.868 503.441C538.868 502.237 539.128 501.341 539.649 500.755C540.398 501.016 542.009 501.146 544.483 501.146H560.694C562.354 501.146 563.689 501.407 564.698 501.927C565.74 502.448 566.26 503.425 566.26 504.857C566.26 505.964 566.016 506.794 565.528 507.347C564.226 507.022 562.859 506.859 561.427 506.859Z" fill="#FF9900"/>
</svg>
