<svg width="156" height="231" viewBox="0 0 156 231" fill="none" xmlns="http://www.w3.org/2000/svg">
<path d="M98.7913 181.573C101.767 185.034 104.619 188.611 107.761 191.917C109.996 194.267 108.787 195.922 107.218 197.721C107.218 197.802 107.218 197.886 107.218 197.967C107.324 198.461 107.429 198.952 107.539 199.443C109.231 196.427 111.696 193.394 107.186 190.595C106.798 190.353 106.597 189.81 106.312 189.407C107.165 189.228 108.075 188.768 108.861 188.912C111.777 189.438 114.682 190.21 114.604 185.633C114.628 185.49 114.677 185.353 114.749 185.227C114.833 185.297 114.953 185.353 115.003 185.444C117.531 190.15 120.379 186.166 123.094 185.739C111.918 187.867 111.16 181.022 111.981 172.904C112.14 171.333 112.644 170.025 114.654 171.627C115.204 172.066 116.455 172.02 117.189 171.719C117.718 171.501 118.123 170.526 118.246 169.832C119.329 163.401 114.883 158.13 114.41 152.018C114.29 150.702 114.256 149.379 114.308 148.059C114.343 147.34 114.71 146.635 114.929 145.923C114.787 145.88 114.642 145.85 114.495 145.835C114.142 146.67 113.501 147.515 113.504 148.353C113.54 153.301 114.033 158.105 116.931 162.471C117.474 163.292 116.152 165.336 115.694 166.813L117.672 165.719C117.599 167.018 117.522 168.319 117.443 169.622C117.94 171.042 116.6 170.87 115.951 171.245C115.785 171.34 115.376 171.024 115.077 170.895L116.427 169.274C116.177 168.457 115.93 167.64 115.68 166.82C111.801 165.627 112.88 161.146 110.391 159.028L110.264 159.61C111.537 162.517 112.51 165.421 114.703 168.051C116.113 169.741 110.472 169.629 111.153 173.104C111.678 175.765 111.967 178.967 110.913 181.278C110.144 182.972 107.091 181.948 105.088 181.173L104.383 181.545C104.337 182.369 104.306 183.912 104.242 183.915C102.127 183.961 102.296 181.965 102.497 181.05C103.445 176.768 97.247 175.148 98.8266 170.779L98.5762 170.561C98.7314 173.601 98.8877 176.64 99.0452 179.679C99.9337 179.381 101.125 178.175 101.178 180.38C101.199 181.296 101.178 182.211 101.178 183.126L98.7913 181.573ZM113.384 187.46C112.39 187.965 111.269 189.024 110.38 188.863C109.22 188.649 107.997 187.65 107.239 186.657C106.322 185.462 111.519 186.657 108.452 184.09C111.131 183.424 111.325 186.566 113.384 187.453V187.46Z" fill="#FF7A00"/>
<path d="M75.1336 218.292L66.9045 215.963C68.7625 212.607 66.4356 208.346 69.2456 205.183C69.3762 204.957 69.4668 204.711 69.5135 204.454C69.1424 204.485 68.7784 204.574 68.4347 204.717C66.2205 206.085 66.908 208.473 66.6083 210.422C66.1993 213.095 67.1583 216.643 62.2858 215.153L62.3387 216.012C65.057 217.166 69.9542 215.882 68.6145 221.567L70.2504 223.373C73.1415 222.868 74.8092 221.199 75.1336 218.292Z" fill="#FF7A00"/>
<path d="M64.3448 26.838C61.0765 28.2688 57.8998 30.6954 54.2506 27.5394C54.0708 27.3816 52.9637 28.1285 52.4349 28.6124C52.2586 28.7773 52.4349 29.71 52.6394 29.8047C53.1189 30.0151 53.7359 29.9415 54.2965 29.931C55.5234 29.8994 56.7645 29.8363 57.9809 29.7872L60.537 29.668C59.959 30.0862 59.3575 30.4714 58.7354 30.8217C58.5379 30.9234 58.1748 30.6393 57.8963 30.6604C57.5437 30.6849 56.8879 30.8322 56.8844 30.9409C56.8597 31.7685 56.6622 33.0695 57.0889 33.3395C58.1184 33.9953 59.4582 34.1741 60.671 34.5458L60.8191 33.6902C60.6604 33.0169 60.3854 32.3401 60.4031 31.6703C60.4031 31.4143 61.0765 31.1408 61.4819 30.969C61.5595 30.9339 61.9896 31.3196 61.965 31.4739C61.3691 34.914 65.2615 35.4436 66.1535 37.9053C66.2382 37.8316 66.3228 37.758 66.4109 37.6879C66.5343 34.4301 59.9941 33.6867 63.206 29.2717L61.764 29.405L64.3448 26.838Z" fill="#FF7A00"/>
<path d="M139.171 126.709C139.809 128.599 142.902 125.23 143.293 127.169C145.313 137.205 139.098 129.782 136.594 130.255C136.527 130.336 136.457 130.416 136.393 130.5C137.426 131.139 138.555 132.433 139.482 132.306C144.185 131.661 144.862 134.354 144.887 137.994C144.919 142.984 136.925 147.059 139.171 150.738C138.692 147.2 149.044 143.574 146.382 141.196C144.178 139.229 145.201 133.772 144.619 129.883C144.182 126.867 141.516 129.02 139.171 126.709Z" fill="#FF7A00"/>
<path d="M93.82 208.862C90.3366 209.213 86.416 207.277 83.5355 210.931C83.2816 211.253 81.6703 211.026 81.6633 210.966C81.4694 208.809 81.3707 206.639 81.3107 204.471C81.328 203.819 81.3857 203.167 81.4835 202.522C81.078 203.223 80.4046 203.882 80.3129 204.626C79.7559 208.988 81.8784 213.985 77.1398 217.327C80.4751 217.117 80.6655 213.607 82.7351 211.93C86.1833 209.135 90.319 210.398 93.82 208.862Z" fill="#FF7A00"/>
<path d="M43.1198 50.0525C42.1361 45.8234 45.7712 44.6802 48.1581 42.8251C50.4146 41.0717 51.2643 39.7041 48.4648 37.5966C47.9889 37.2459 49.0854 35.0332 49.1453 33.669C49.1806 32.8309 48.627 31.9683 48.3379 31.1196C48.1934 34.3353 47.9853 37.551 47.9219 40.7667C47.8584 44.2734 42.8765 43.4914 42.6685 46.9245C42.6015 48.0572 41.8541 49.1548 43.1198 50.0525Z" fill="#FF7A00"/>
<path d="M38.2866 82.8814C38.962 79.9896 41.5399 80.3779 43.5668 79.9547C45.4828 79.5549 46.4183 78.9699 45.3369 76.8362C45.1507 76.4781 46.4935 75.4483 46.9429 74.6286C47.2181 74.1246 47.1392 73.4289 47.2184 72.8211C46.1568 74.7522 45.0563 76.6644 44.0445 78.6199C42.9446 80.7541 40.1222 78.7797 38.9558 80.8254C38.572 81.5008 37.781 81.9505 38.2866 82.8814Z" fill="#FF7A00"/>
<path d="M49.2711 118.132C50.4537 117.069 52.3506 116.18 50.1669 114.314C50.0627 114.229 50.2442 113.812 50.2902 113.552C50.6311 113.726 50.9571 113.927 51.2648 114.154C51.8308 114.635 52.3765 115.165 52.9066 115.696C53.4366 116.226 53.9689 116.788 54.485 117.344C54.3578 116.877 54.3834 116.205 54.0792 115.977C52.613 114.894 52.1908 112.387 49.7729 112.761C49.5587 112.794 49.523 114.349 49.5214 115.198C49.5814 115.673 49.7066 116.137 49.8932 116.577C49.4073 116.306 48.7746 116.146 48.4609 115.744C46.1363 112.743 45.1392 113.159 42.8565 110.125C43.7981 115.021 46.936 114.158 49.2711 118.132Z" fill="#FF7A00"/>
<path d="M30.4447 227.135C25.2971 223.815 30.889 220.872 30.7973 217.73L30.5399 217.559C28.0331 219.631 27.6911 216.966 26.6616 215.805L26.4042 216.009C26.4465 218.495 29.2883 220.567 27.6523 223.173C27.2998 223.734 28.1847 227.753 25.343 224.737C24.6378 223.997 24.6766 222.577 24.3734 221.469C23.3051 226.645 26.711 227.055 30.4447 227.135Z" fill="#FF7A00"/>
<path d="M61.281 1.37874C62.2541 1.47693 63.3541 1.91177 64.1756 1.60668C66.4497 0.768561 67.7225 1.05612 67.6414 3.75635L71.7383 2.75691C70.6453 2.16076 69.6229 1.2525 68.4453 1.02807C65.6233 0.455303 62.7592 0.111677 59.8812 0.00057888C58.8764 -0.0274756 57.3497 0.852729 58.8235 2.45533L59.0456 2.1292L60.5159 0.435417L61.281 1.37874Z" fill="#FF7A00"/>
<path d="M61.4925 18.5796L62.5502 18.4849C63.5269 12.9443 59.5146 9.05529 57.7588 4.4229C57.5789 3.94949 56.3696 3.86183 55.6433 3.59532L56.151 5.26101C56.1633 5.30786 56.1647 5.35689 56.1549 5.40432C56.1451 5.45175 56.1245 5.49631 56.0946 5.53454L55.802 5.81157C56.8033 7.03542 57.5648 8.87646 58.8553 9.37442C63.9782 11.3592 59.4899 15.6269 61.2774 18.299L61.4925 18.5796Z" fill="#FF7A00"/>
<path d="M45.4327 26.5504C48.0418 27.1395 48.0524 24.2395 49.6178 23.3032C50.4675 22.7982 49.4309 21.4937 48.0629 21.4902C48.0277 21.4902 47.996 20.6872 47.9607 20.2593C47.6293 20.0489 47.1392 19.9087 46.9911 19.6141C46.6471 18.8417 46.3515 18.0488 46.1062 17.2401C45.7959 17.5311 45.1965 17.8537 45.2212 18.1132C45.3552 19.4072 45.3058 21.5954 45.9263 21.8304C52.4419 24.25 44.7629 24.9443 45.4327 26.5504Z" fill="#FF7A00"/>
<path d="M61.7851 38.147L60.3748 39.4585L60.2091 39.6935L69.2315 44.0874L66.4109 37.7017C66.3227 37.7718 66.2381 37.8454 66.1535 37.9191C65.2157 44.4276 63.9958 35.4258 62.9803 37.9752L61.7851 38.147Z" fill="#FF7A00"/>
<path d="M83.6271 61.2492C84.9281 63.0412 87.858 64.1703 86.074 67.2107C87.6147 67.0774 87.8545 65.7624 87.375 64.9418C86.0246 62.6274 84.9881 59.8676 82.1639 58.8822C80.8629 58.4298 79.3433 58.5596 77.933 58.4263C79.6783 58.4789 79.1953 63.0131 82.2027 60.5303L82.8444 60.9091L82.9008 60.9336L83.6271 61.2492Z" fill="#FF7A00"/>
<path d="M77.0879 78.1347C80.1457 75.7101 81.4824 71.4297 87.787 72.5228C87.1015 70.5669 84.5234 70.788 83.0906 71.7466C79.0489 74.4477 74.0689 76.9202 72.9773 81.0043C72.4774 82.8851 73.1502 84.8148 73.2902 86.7087C72.9025 84.4106 81.6958 83.2002 76.1136 80.2847L76.6573 79.2939L76.6884 79.2103L77.0879 78.1347Z" fill="#FF7A00"/>
<path d="M72.6656 54.169C70.0706 55.8172 67.2924 56.8973 64.1615 56.8832L66.7847 57.5215C67.9481 57.1252 69.1081 56.7219 70.2787 56.3432C70.6982 56.2064 71.1319 56.1223 71.562 56.0136C71.6361 56.3923 71.8652 56.8201 71.7595 57.1357C71.3505 58.3701 70.113 59.4782 71.3434 60.8879L74.1922 58.0825C70.7969 57.9037 73.7233 55.2666 72.6656 54.169Z" fill="#FF7A00"/>
<path d="M43.0493 64.8335C43.2079 62.2911 42.9294 59.4927 46.6385 59.1C46.8888 59.0754 47.0616 58.2934 47.2696 57.8621C46.3423 58.1076 45.3375 58.2128 44.5054 58.6441C43.7298 59.0439 43.141 59.7943 42.4675 60.3975C42.6227 59.0228 42.7143 57.6412 42.9541 56.2841C43.074 55.5827 43.4618 54.9445 43.7298 54.2782C39.9325 57.564 41.8999 61.2251 43.0493 64.8335Z" fill="#FF7A00"/>
<path d="M44.8122 41.9587C46.3811 40.9979 45.542 39.6302 45.2388 38.4941C45.1436 38.1434 44.0118 38.0557 43.356 37.8453C43.1233 38.8237 42.6756 39.8126 42.7355 40.7699C42.7778 41.4538 42.9576 42.902 44.4561 41.9798L44.5019 41.5835L44.4702 41.6081C44.4393 41.5595 44.4195 41.5049 44.4122 41.4479C44.4049 41.391 44.4103 41.3331 44.4279 41.2784L44.8192 41.6291C44.8122 41.7483 44.8122 41.8535 44.8122 41.9587Z" fill="#FF7A00"/>
<path d="M43.0493 226.837C38.3883 227.037 40.6271 223.878 40.8034 221.974C41.0044 219.796 40.1829 220.048 38.8431 220.802C40.9938 222.763 37.87 226.922 41.9563 228.131C42.6227 228.328 43.1269 229.085 43.7192 229.583L45.1788 227.395H44.9144C44.0153 228.135 43.0845 229.008 43.0493 226.837Z" fill="#FF7A00"/>
<path d="M14.8681 220.126C16.2255 218.001 17.6287 215.918 18.898 213.729C19.1201 213.344 18.7852 212.635 18.7076 212.078L13.6517 219.414L14.8681 220.126Z" fill="#FF7A00"/>
<path d="M64.5564 7.55069C57.0889 9.63018 63.9746 2.7219 61.0306 1.97146L59.0386 2.12927L58.8165 2.45539C62.6172 3.31805 59.1902 6.05681 60.1457 7.51562C61.4255 9.46186 63.0791 9.9002 64.5564 7.55069Z" fill="#FF7A00"/>
<path d="M154.099 151.597C153.746 153.48 152.284 153.063 150.496 154.041C150.56 154.122 150.627 154.202 150.697 154.276L155.401 152.207L156 151.597H154.099Z" fill="#FF7A00"/>
<path d="M66.3193 46.4404C65.9279 47.822 65.4378 49.1896 65.2615 50.5958C65.2369 50.7992 66.7036 51.192 67.4828 51.4971L68.5405 50.2066C68.477 50.1224 68.4136 50.0348 68.3536 49.9471C63.7984 51.0131 67.7014 47.2083 66.3193 46.4404Z" fill="#FF7A00"/>
<path d="M55.7949 5.81477L56.0875 5.53775C56.0875 5.44657 56.1192 5.35189 56.1369 5.26071L55.6292 3.59501C54.5714 5.76218 51.5745 7.32267 53.4784 10.4121C54.0214 8.76745 53.4432 6.5582 55.7949 5.81477Z" fill="#FF7A00"/>
<path d="M36.703 230.716L36.1424 229.232L30.5964 227.128L36.703 230.716Z" fill="#FF7A00"/>
<path d="M53.7429 5.35209C52.865 4.60867 52.3327 3.81264 51.8814 3.86173C51.3596 3.92485 50.7954 4.65776 50.524 5.22936C50.4111 5.46781 51.0775 6.42866 51.2573 6.3936C51.9766 6.23579 52.6394 5.84654 53.7429 5.35209Z" fill="#FF7A00"/>
<path d="M62.1624 226.438C62.0672 225.508 62.2541 223.941 61.831 223.759C59.1091 222.577 56.493 223.015 54.2224 225.028C57.0219 224.656 60.3255 221.451 62.1624 226.438Z" fill="#FF7A00"/>
<path d="M6.97742 214.862H9.55473C10.6125 216.419 9.06466 219.747 12.7455 219.533C9.61467 218.832 12.4423 214.371 9.17043 213.887C8.49701 213.771 7.70725 214.511 6.97742 214.862Z" fill="#FF7A00"/>
<path d="M37.0556 227.988L39.0934 231C40.5954 228.356 36.1494 227.202 37.4786 224.541C38.0604 223.376 38.3601 222.086 38.7902 220.83C34.9401 222.433 37.5844 225.593 37.0556 227.988Z" fill="#FF7A00"/>
<path d="M18.7217 212.021C20.8372 209.949 18.147 207.813 18.8063 205.709C16.2537 207.789 18.3692 209.917 18.7217 212.021Z" fill="#FF7A00"/>
<path d="M136.369 176.789C137.779 179.177 135.564 179.598 136.061 181.084L137.554 180.093H139.544C137.383 179.606 137.818 179.633 136.591 176.537L136.369 176.789Z" fill="#FF7A00"/>
<path d="M65.1099 26.5433C66.2311 27.697 64.9124 28.2406 64.4858 28.998C65.0887 28.5913 66.1817 28.2125 66.2064 27.7742C66.3121 25.8385 66.6823 23.7449 64.9019 22.2195C64.9724 23.6619 65.0417 25.1032 65.1099 26.5433Z" fill="#FF7A00"/>
<path d="M48.0065 20.1924C50.9576 19.0632 49.0008 16.6611 49.4168 14.8727L48.0065 20.1924Z" fill="#FF7A00"/>
<path d="M15.76 221.041C13.6904 224.505 11.0708 219.933 8.87427 221.507C11.3599 221.956 13.8103 224.723 16.3594 221.655L15.76 221.041Z" fill="#FF7A00"/>
<path d="M15.7601 221.041L16.3594 221.655C17.6992 221.234 18.9897 220.767 18.7287 218.951C18.4361 220.578 15.5908 218.081 15.9082 220.683C15.8517 220.802 15.8059 220.922 15.7601 221.041Z" fill="#FF7A00"/>
<path d="M68.6427 52.174C70.053 52.2968 71.0437 50.07 72.6761 51.4727C71.8617 49.2459 70.1729 49.4212 68.3677 49.9262L68.551 50.1857C71.2729 50.7433 67.8282 51.5639 68.6427 52.174Z" fill="#FF7A00"/>
<path d="M15.5485 153.196L18.4008 151.38L17.0963 150.678C15.4427 150.822 15.5485 152.035 15.5485 153.196Z" fill="#FF7A00"/>
<path d="M75.8387 54.9443L74.4919 53.9273C74.2416 54.25 73.7233 54.6673 73.7868 54.8742C73.9736 55.3932 74.4285 55.8175 74.774 56.2769L75.8387 54.9443Z" fill="#FF7A00"/>
<path d="M79.2905 56.9434C79.71 55.9755 80.0838 55.5407 80.0133 55.1654C79.9251 54.7096 79.4703 54.3273 79.1777 53.9135C78.8921 54.2011 78.3491 54.5237 78.3808 54.7762C78.4478 55.3303 78.8039 55.8493 79.2905 56.9434Z" fill="#FF7A00"/>
<path d="M70.2645 223.373L68.6286 221.549C69.7533 223.303 67.0173 223.587 67.2959 225.021L70.2645 223.373Z" fill="#FF7A00"/>
<path d="M43.7545 54.2222C44.7064 53.4156 46.1167 54.145 46.6667 53.8715C48.5565 52.9632 46.3529 52.7949 46.1414 52.8195C44.7311 52.9632 44.1917 52.1181 43.7404 51.0486C43.7545 52.1111 43.7545 53.1666 43.7545 54.2222Z" fill="#FF7A00"/>
<path d="M140.36 118.076L138.16 118.346C138.558 119.7 139.387 120.159 140.719 119.552L140.36 118.076Z" fill="#FF7A00"/>
<path d="M131.545 109.625L136.129 111.788C134.817 110.575 134.257 107.962 131.545 109.369C131.545 109.449 131.545 109.537 131.545 109.625Z" fill="#FF7A00"/>
<path d="M48.338 31.0845C49.5649 30.5549 49.7659 29.6046 48.8809 28.777C47.996 27.9494 46.8536 27.192 45.7642 28.6543C47.3719 28.6788 48.7857 28.9173 48.338 31.0845Z" fill="#FF7A00"/>
<path d="M8.84963 221.525C7.15728 221.616 5.32389 220.666 3.82898 222.226L8.84963 221.525Z" fill="#FF7A00"/>
<path d="M0 220.82C2.11545 221.03 2.61258 219.144 3.69145 218.015L0 220.82Z" fill="#FF7A00"/>
<path d="M136.834 115.127C137.225 117.031 138.999 117.294 140.36 118.062L136.834 115.127Z" fill="#FF7A00"/>
<path d="M44.5054 41.5837L44.4596 41.98L44.8122 41.9589C44.8122 41.8537 44.8122 41.7486 44.8122 41.6434L44.5054 41.5837Z" fill="#FF7A00"/>
<path d="M131.545 109.625C131.545 109.537 131.545 109.449 131.545 109.362L131.193 109.306L131.545 109.625Z" fill="#FF7A00"/>
<path d="M9.55477 214.859C8.84962 215.265 8.15387 215.675 7.46753 216.086L8.61692 216.672L9.55477 214.845V214.859Z" fill="#FF7A00"/>
<path d="M66.7951 57.5218L64.172 56.8835L58.9151 57.7532C58.4744 58.2757 58.1148 58.9315 57.5612 59.2611C57.3426 59.3908 56.6974 58.7772 56.232 58.5317C55.7666 58.2862 54.7124 58.0723 55.2836 58.8613C57.526 61.9402 54.106 60.4043 53.5489 61.1407L52.3537 62.2523C53.1223 62.1647 53.898 62.1261 54.656 61.9788C55.9993 61.7123 57.3321 61.3792 58.6683 61.0776H59.5251C59.1936 63.634 58.9363 66.1448 57.057 68.2453C55.2942 70.2091 54.5185 66.7375 52.6675 67.7299C51.6486 68.2769 50.2312 68.1577 49.6424 69.5043C49.5649 69.6866 49.8328 70.0162 49.9421 70.2757C50.4251 69.7953 51.0915 68.8134 51.3524 68.9116C54.3528 70.0092 57.2051 70.8894 59.0315 67.1197L58.5625 71.1103C58.4074 71.9625 58.2558 72.8181 58.1042 73.6703C55.6679 74.3716 53.288 74.9853 51.3841 72.4569C51.0985 72.0747 49.3463 71.0542 50.062 73.011C50.4146 73.9929 52.0646 75.2167 53.0448 75.1536C58.7706 74.7819 56.3766 78.5657 56.366 81.1466L56.6199 81.3535L57.0535 81.3184C57.1099 81.2588 57.1628 81.1957 57.2157 81.1291C61.2139 73.5896 55.8971 62.3014 66.7951 57.5218Z" fill="#FF7A00"/>
<path d="M86.3913 169.219C86.1198 165.87 83.3979 163.04 84.304 159.442V159.459C82.2168 153 88.4362 148.382 88.1401 142.297C87.0012 145.236 85.8942 148.189 84.706 151.11C84.4204 151.811 83.8669 152.397 83.4367 153.038C82.8691 152.32 81.9841 151.678 81.7902 150.868C80.9193 147.305 80.253 143.693 79.502 140.099C79.4387 139.892 79.3548 139.692 79.2517 139.502C79.1353 139.723 78.9238 139.944 78.8991 140.169C78.7369 145.222 80.3728 149.795 82.6611 154.196C82.8479 154.546 83.0136 155.307 82.9008 155.381C81.5222 156.198 82.9008 159.035 80.7571 158.835C78.7369 158.646 79.4703 159.733 79.844 160.273C81.9665 163.32 84.1983 166.255 86.3913 169.219Z" fill="#FF7A00"/>
<path d="M73.5646 180.489C76.089 178.034 79.0612 178.217 82.1427 179.058C81.8395 177.656 81.3212 177.361 79.6007 177.452C76.0502 177.642 72.5492 176.751 69.9754 173.882C69.7991 173.682 69.4254 173.654 69.1433 173.532C69.299 173.863 69.4769 174.184 69.6757 174.493C70.0283 174.955 70.4126 175.376 70.7828 175.815C70.1164 175.913 69.2984 176.305 68.8119 176.057C64.7009 173.974 61.3585 174.896 58.5872 178.385L58.7459 179.237C58.6542 179.938 58.7988 181.012 58.4286 181.232C57.5366 181.758 56.3731 182.183 55.3718 182.092C53.7358 181.944 52.1245 181.155 50.7037 182.628C55.8195 183.512 59.5709 182.979 62.3386 177.259C64.0239 173.784 68.7132 177.396 72.0697 177.407C73.8537 177.428 75.4861 178.283 73.5646 180.489Z" fill="#FF7A00"/>
<path d="M116.184 135.748C114.454 135.708 113.515 134.607 112.774 133.243C112.376 133.83 112.445 134.111 113.059 134.681C114.327 135.856 115.192 137.384 115.038 139.265C115.026 139.395 115.142 139.535 115.194 139.676C115.259 139.508 115.314 139.336 115.357 139.161C115.403 138.879 115.423 138.6 115.455 138.321C115.715 138.52 116.132 138.671 116.207 138.926C116.853 141.075 118.311 141.927 120.494 141.699L120.744 141.352C121.026 141.143 121.36 140.725 121.564 140.779C122.053 140.91 122.598 141.171 122.904 141.552C123.404 142.174 123.667 143.007 124.673 142.998C123.26 140.909 121.801 139.782 118.824 140.775C117.014 141.377 116.719 138.502 115.588 137.326C114.993 136.696 114.747 135.833 116.184 135.748Z" fill="#FF7A00"/>
<path d="M33.9423 149.924L35.2927 145.765L33.5051 144.524C34.1433 144.261 34.9154 144.127 35.3984 143.703C36.0148 143.101 36.5505 142.422 36.9921 141.683C37.1155 141.504 37.0273 141.182 37.0379 140.926L35.6276 141.543C35.275 142.08 35.0317 142.805 34.5311 143.093C34.0304 143.381 33.3077 143.195 32.6766 143.219L34.7215 141.406L34.4712 141.122C29.4752 142.869 29.7643 146.656 29.8172 151.032C29.8524 154.153 27.7969 157.288 26.7533 160.444C26.4432 161.572 26.1972 162.716 26.0164 163.87L26.2985 164.119L29.6197 155.91C29.5988 155.864 29.5879 155.815 29.5879 155.765C29.5879 155.714 29.5988 155.665 29.6197 155.619C29.2107 152.372 32.1195 151.6 33.8824 149.973C32.5849 149.693 30.3954 151.376 30.2826 148.595C30.2508 147.803 31.4002 146.235 31.9185 146.274C34.1362 146.435 33.5615 148.511 33.9423 149.924Z" fill="#FF7A00"/>
<path d="M52.4913 143.742C52.9778 145.544 53.2317 147.462 54.0285 149.118C54.6913 150.496 54.0285 150.482 53.133 150.622C58.0937 154.287 58.0937 154.287 57.4167 155.125C59.0033 157.867 61.9121 158.803 64.4682 160.23C64.5352 160.15 64.6022 160.069 64.6657 159.985C64.165 158.565 63.4458 157.558 61.771 157.106C59.853 156.583 57.9315 155.311 58.7953 152.986C59.6027 150.822 59.3947 147.806 62.6243 147.066C63.9217 146.768 65.1663 146.228 66.4356 145.8C65.1134 145.758 63.7701 145.562 62.4727 145.723C61.6512 145.828 60.8966 146.467 60.1139 146.863C60.1386 145.253 60.0928 143.637 60.2021 142.034C60.2832 140.845 60.5546 139.674 60.7627 138.492C60.6851 138.429 60.6075 138.37 60.5264 138.313C59.1761 141.375 58.9575 144.555 59.1161 147.876C59.1761 149.156 58.0972 150.492 57.5366 151.8C56.017 150.808 54.4868 149.784 54.4939 147.711C54.4939 146.053 54.159 144.597 52.7522 143.552L52.4913 143.742Z" fill="#FF7A00"/>
<path d="M28.4807 118.498C28.9672 120.3 29.2211 122.218 30.0179 123.873C30.6807 125.252 30.0179 125.238 29.1223 125.378C34.0831 129.042 34.0831 129.042 33.4061 129.881C34.9927 132.623 37.9014 133.559 40.4576 134.986C40.5246 134.906 40.5916 134.825 40.6551 134.741C40.1544 133.321 39.4351 132.314 37.7604 131.862C35.8424 131.339 33.9209 130.066 34.7847 127.741C35.5921 125.578 35.3841 122.562 38.6136 121.822C39.9111 121.524 41.1557 120.984 42.425 120.556C41.1028 120.514 39.7595 120.318 38.462 120.479C37.6405 120.584 36.886 121.222 36.1033 121.619C36.128 120.009 36.0822 118.392 36.1915 116.79C36.2725 115.601 36.544 114.43 36.7521 113.248C36.6745 113.185 36.5969 113.125 36.5158 113.069C35.1655 116.131 34.9469 119.311 35.1055 122.632C35.1655 123.912 34.0866 125.248 33.526 126.556C32.0064 125.564 30.4762 124.54 30.4833 122.467C30.4833 120.809 30.1483 119.353 28.7416 118.308L28.4807 118.498Z" fill="#FF7A00"/>
<path d="M86.1304 124.676C85.8801 123.887 85.6262 123.101 85.3759 122.316C84.981 124.949 84.565 127.576 84.2124 130.22C84.156 130.623 84.297 131.377 84.5156 131.447C90.6469 133.4 88.1789 138.24 88.2106 142.234C91.2216 141.378 91.0312 140.421 89.2049 134.779C88.1789 131.573 85.1749 128.936 86.1339 125.114C86.1339 124.97 86.1304 124.823 86.1304 124.676Z" fill="#FF7A00"/>
<path d="M58.7283 179.251L58.5626 178.399C57.3004 179.749 55.4882 181.509 54.0109 180.086C51.3384 177.501 46.4799 177.631 45.4292 173.177C45.3725 172.996 45.2678 172.834 45.126 172.707C44.1494 173.118 43.1904 173.56 42.2278 173.998L44.1282 175.008C44.3539 175.313 44.583 175.618 44.8087 175.927C46.1167 176.326 48.2604 176.421 48.546 177.196C49.0431 178.529 47.2767 178.041 46.4305 178.248C44.6394 178.7 44.7346 177.308 44.4561 176.277L40.6906 179.048L41.639 179.795C45.1648 178.974 48.7328 177.719 52.2163 179.9C54.6067 181.397 56.8597 182.477 58.7283 179.251Z" fill="#FF7A00"/>
<path d="M72.8207 109.649C70.1094 109.779 69.3231 112.157 68.1244 113.857C66.3439 116.4 64.024 117.445 61.0306 117.336L57.9879 114.815C57.4402 113.898 56.8926 112.983 56.3449 112.069L54.6843 113.405C55.3224 113.58 56.3378 113.57 56.5388 113.966C57.7869 116.421 59.4652 117.862 62.4021 118.332C65.54 118.83 66.6965 115.334 69.4747 115.527L69.5171 115.267L69.4853 115.222L69.2209 114.815C69.2738 113.524 68.8013 112.528 71.2341 113.195C73.4588 113.815 70.2363 110.035 72.8207 109.649Z" fill="#FF7A00"/>
<path d="M22.2862 166.143C22.5224 167.851 23.5167 170.569 22.8398 171.073C21.1862 172.304 18.8663 173.178 16.4934 172.294C13.0241 171.003 14.6988 168.107 14.4591 165.792C13.3767 166.767 12.0228 167.949 12.7985 169.369C13.9584 171.473 15.6614 173.297 17.1351 175.24C18.8733 171.989 21.9478 172.308 24.8917 172.487C25.4453 172.522 25.9495 173.339 26.4713 173.795L24.7084 169.236L24.4404 168.128C24.4865 168.036 24.5253 167.941 24.5568 167.844C24.5308 167.749 24.4978 167.657 24.4581 167.567C24.3382 167.374 24.2148 167.181 24.1055 166.988L22.2862 166.143Z" fill="#FF7A00"/>
<path d="M50.5485 130.069C55.6996 128.463 54.9346 125.16 53.0483 121.509L52.8226 121.692C51.7297 122.358 49.4133 120.787 49.4344 123.151C49.4344 124.325 51.5181 124.876 52.1422 125.605C53.3339 126.983 52.3079 128.947 50.344 129.813C50.411 129.905 50.478 129.989 50.5485 130.069Z" fill="#FF7A00"/>
<path d="M94.5252 181.183L98.7068 181.534C92.6636 179.395 91.553 172.35 86.4196 169.309C87.6359 170.993 88.4962 173.388 90.1463 174.219C93.3159 175.748 91.3521 179.994 94.5252 181.183Z" fill="#FF7A00"/>
<path d="M50.3441 129.82C48.0453 131.573 45.7113 133.271 43.49 135.108C43.1375 135.41 43.1974 136.325 43.2468 136.942C43.2468 137.086 44.1775 137.405 44.3785 137.251C45.7888 136.199 47.2414 135.147 48.3838 133.853C49.3216 132.78 49.8399 131.346 50.5486 130.069C50.4781 129.988 50.4111 129.904 50.3441 129.82Z" fill="#FF7A00"/>
<path d="M44.1353 175.008L42.2349 173.998C39.0018 174.349 36.428 177.364 32.8458 176.302L30.3778 179.43C34.6827 177.101 39.3402 175.836 44.1353 175.008Z" fill="#FF7A00"/>
<path d="M53.0483 121.509C53.4009 120.152 55.4423 118.704 52.8367 117.508C51.1232 116.726 50.7213 117.897 50.3687 119.156C49.6636 121.509 51.5146 121.33 52.8367 121.691L53.0483 121.509Z" fill="#FF7A00"/>
<path d="M25.0681 167.521C25.7133 169.59 32.7648 170.214 26.5101 173.833C27.2822 174.724 28.9534 174.293 30.6916 172.753C29.5457 169.713 25.5828 168.089 26.3021 164.113L26.02 163.864L25.0681 167.521Z" fill="#FF7A00"/>
<path d="M54.0179 56.6943C55.0757 58.097 56.3978 58.2022 57.8751 57.3957C59.8072 55.2495 64.3025 57.8305 65.0711 53.5382C62.6243 54.4781 60.6534 57.4939 57.4802 55.246C57.5225 55.0006 57.5613 54.7551 57.6001 54.5061C55.5093 53.7907 56.6623 58.3179 54.0179 56.6943Z" fill="#FF7A00"/>
<path d="M54.8464 154.539C55.1109 150.79 50.5415 152.817 49.7482 150.324C47.7738 150.198 45.8029 150.054 43.8285 149.973C43.564 149.973 43.282 150.25 43.0105 150.398C43.3631 150.594 43.7156 150.948 44.0682 150.969C48.01 151.173 51.6697 152.116 54.8464 154.539Z" fill="#FF7A00"/>
<path d="M61.1399 165.635C60.3924 170.656 64.2814 169.197 65.9843 170.544C66.076 170.414 66.2699 170.218 66.2346 170.162C66.0019 169.772 65.7657 169.141 65.4413 169.082C63.7983 168.791 62.7935 168.282 63.8935 166.427C63.9781 166.287 63.6291 165.891 63.4845 165.613C63.4352 168.184 61.3832 165.34 61.1399 165.635Z" fill="#FF7A00"/>
<path d="M47.9853 158.2L49.653 157.685C48.5741 157.751 47.4847 157.772 46.4093 157.902C44.174 158.172 43.0105 156.647 41.8259 155.212C40.7681 153.946 40.7117 151.706 38.3318 151.818C39.037 152.996 39.4812 154.42 40.4473 155.29C42.0586 156.748 43.3666 158.965 47.9853 158.2Z" fill="#FF7A00"/>
<path d="M82.2239 179.118C83.9867 182.07 92.8011 183.578 94.4935 181.222C90.051 182.554 86.416 179.272 82.2239 179.118Z" fill="#FF7A00"/>
<path d="M60.7556 138.492L63.9569 135.711V134.786V134.807L62.8992 134.368C62.3563 134.137 61.6582 134.018 61.2985 133.635C60.7309 133.011 61.5277 131.209 59.5991 131.742C61.2739 132.643 59.2465 134.323 60.1174 135.003C61.57 136.129 61.1469 137.107 60.5193 138.313C60.6004 138.369 60.678 138.44 60.7556 138.492Z" fill="#FF7A00"/>
<path d="M82.0793 68.4664L79.1212 68.8907C79.0507 68.9714 78.9837 69.0555 78.9238 69.1397C76.8401 70.4617 74.7528 71.7732 72.6832 73.1128C72.245 73.4319 71.8259 73.7762 71.428 74.1438C72.0768 73.986 72.8383 74 73.3531 73.6423C76.015 71.7417 78.684 69.9462 82.2062 70.4126C82.2591 69.8621 82.3155 69.315 82.3684 68.768L82.0793 68.4664Z" fill="#FF7A00"/>
<path d="M14.4908 165.729L16.9588 162.268C17.1939 161.048 17.4289 159.827 17.664 158.607L14.8152 161.206C17.5829 162.917 12.5481 164.078 14.4908 165.729Z" fill="#FF7A00"/>
<path d="M71.3717 168.759C68.7273 166.813 65.5894 165.207 66.2558 161.044C66.2946 160.785 65.2157 160.343 64.6586 159.992C64.5952 160.076 64.5282 160.157 64.4612 160.238C65.4731 164.07 66.3721 167.991 71.1178 169.032L71.3717 168.759Z" fill="#FF7A00"/>
<path d="M61.2703 18.3026C58.0337 18.5796 58.0125 23.5626 54.2188 23.0576C54.1897 23.147 54.1673 23.2385 54.1519 23.3312C54.4112 23.4363 54.6866 23.4968 54.9663 23.51C58.0866 23.1173 60.0504 21.1956 61.4748 18.5761L61.2703 18.3026Z" fill="#FF7A00"/>
<path d="M52.7451 143.553C53.4503 140.87 50.7778 137.672 53.9862 135.305C54.092 135.228 53.4291 134.12 53.1224 133.492C52.999 133.72 52.858 133.941 52.7451 134.193C52.2833 135.196 51.4054 136.22 51.4512 137.202C51.5534 139.397 52.1176 141.571 52.4913 143.756L52.7451 143.553Z" fill="#FF7A00"/>
<path d="M79.7911 137.181C79.1071 137.219 78.6029 137.111 78.483 137.276C76.8506 139.492 74.8621 141.245 72.1755 142.125C72.0415 142.167 72.0591 142.672 72.0062 142.96C73.2402 142.48 74.6576 142.238 75.6589 141.463C77.1009 140.34 78.2362 138.829 79.7911 137.181Z" fill="#FF7A00"/>
<path d="M71.1178 169.026C73.7092 170.744 76.2618 172.497 77.8167 175.338C77.9507 175.576 78.5218 175.583 78.8744 175.688C78.7968 175.338 78.818 174.892 78.617 174.615C76.7413 172.013 74.6188 169.706 71.3717 168.766L71.1178 169.026Z" fill="#FF7A00"/>
<path d="M59.6203 113.833L61.0694 114.92L67.7683 108.882C67.7197 108.86 67.6766 108.827 67.6424 108.787C67.6082 108.746 67.5837 108.698 67.5708 108.647C63.8265 108.717 63.146 113.454 59.6203 113.833Z" fill="#FF7A00"/>
<path d="M86.007 139.793C83.0912 137.882 84.2441 134.8 83.4367 132.342L82.1569 133.53C84.4274 135.329 82.9149 137.823 83.3521 139.958C84.0008 138.166 85.0832 140.915 86.007 139.793Z" fill="#FF7A00"/>
<path d="M19.7794 161.903C19.6842 163.818 20.4176 165.259 22.2157 166.083C20.1355 163.496 21.708 160.795 21.9724 158.134L21.7186 157.934L19.7794 161.903Z" fill="#FF7A00"/>
<path d="M57.05 81.3255L58.002 83.0088C58.5485 82.6581 59.5498 82.3074 59.5533 81.9568C59.5533 81.1712 59.0809 80.3752 58.7953 79.5827L57.2122 81.1292C57.1523 81.2028 57.1065 81.28 57.05 81.3255Z" fill="#FF7A00"/>
<path d="M43.2855 142.872C42.9964 143.451 42.7108 144.033 42.4217 144.626C44.1387 145.327 45.8522 146.028 47.5869 146.688C47.7103 146.737 47.9677 146.432 48.1651 146.288C47.7877 146.065 47.3981 145.864 46.9981 145.685C46.1555 145.359 45.3058 144.847 44.4455 144.822C42.947 144.78 43.0669 144.121 43.5147 143.146C43.4371 143.044 43.3631 142.956 43.2855 142.872Z" fill="#FF7A00"/>
<path d="M56.1721 158.607L55.89 155.851L53.5349 158.919C53.8121 159.107 54.0993 159.281 54.3951 159.438C54.8217 158.87 57.0077 160.455 56.1721 158.607Z" fill="#FF7A00"/>
<path d="M69.4677 58.7458L67.0808 59.868L68.3078 60.8919C68.9142 59.2928 70.1412 62.996 70.529 60.65C70.6172 60.1345 69.9014 59.4822 69.4677 58.7458Z" fill="#FF7A00"/>
<path d="M21.9725 158.134C24.5498 156.541 22.6882 153.799 23.6225 151.765C23.6402 151.727 23.2982 151.467 23.2876 151.478C23.0232 151.765 22.6001 152.004 22.5578 152.316C22.2334 154.181 21.9901 156.061 21.7186 157.927L21.9725 158.134Z" fill="#FF7A00"/>
<path d="M19.0426 152.779L18.0166 158.207C20.5904 157.095 19.4269 154.202 20.7632 152.498L19.0426 152.779Z" fill="#FF7A00"/>
<path d="M35.3632 141.357C36.7735 140.712 38.3002 140.249 39.5165 139.355C40.3028 138.777 40.5496 137.574 39.3226 136.806C39.5835 138.745 38.2896 139.026 36.8052 139.422C35.9379 139.657 35.2469 140.54 34.4747 141.133L34.7215 141.414L35.3632 141.357Z" fill="#FF7A00"/>
<path d="M79.1212 68.8906C77.0762 67.7965 75.2781 66.5166 75.2146 63.89C75.2146 63.7568 75.0525 63.627 74.9643 63.4973C74.8585 63.7287 74.6576 63.9566 74.6541 64.1986C74.6541 67.0566 75.8634 68.8977 78.9237 69.1501C78.9837 69.0555 79.0507 68.9713 79.1212 68.8906Z" fill="#FF7A00"/>
<path d="M50.8377 60.9128L53.9545 56.7328L51.4653 58.2021L51.2643 58.402C50.6814 59.253 50.102 60.1063 49.5261 60.9619L50.8377 60.9128Z" fill="#FF7A00"/>
<path d="M58.1007 73.6775C58.2523 72.8253 58.4039 71.9697 58.559 71.1176C57.9068 70.4407 57.5366 70.6547 57.184 71.4507C56.6974 72.5588 56.7997 73.3443 58.1007 73.6775Z" fill="#FF7A00"/>
<path d="M51.7861 63.3393L48.8315 65.3942L50.9963 65.1418C50.8765 65.6187 50.7531 66.0956 50.6438 66.5725L52.2903 64.5491L51.7861 63.3393Z" fill="#FF7A00"/>
<path d="M68.9177 83.2437C67.5744 82.9526 66.2311 82.4406 64.8913 82.4441C63.9041 82.4441 63.6467 83.6119 64.6727 83.8223C65.9349 84.0818 67.3382 83.6539 68.6779 83.5277L68.9177 83.2437Z" fill="#FF7A00"/>
<path d="M50.806 47.5837L49.2335 48.285L53.3269 51.8584L50.806 47.5837Z" fill="#FF7A00"/>
<path d="M58.3334 157.138L56.1862 157.99C56.5846 158.34 57.0641 159.08 57.3673 159.017C58.0725 158.866 58.693 158.316 59.3488 157.965L58.3334 157.138Z" fill="#FF7A00"/>
<path d="M60.678 123.74C59.8247 123.35 58.9468 122.614 58.1218 122.666C57.3497 122.716 56.6304 123.599 55.8865 124.118C56.0487 124.188 56.299 124.36 56.3554 124.311C57.6705 123.143 59.1161 123.838 60.678 123.74Z" fill="#FF7A00"/>
<path d="M49.7482 150.334L52.0223 149.633L50.1008 147.778L49.7482 150.334Z" fill="#FF7A00"/>
<path d="M55.3894 163.299L56.0593 162.285C55.601 162.229 55.0897 162.285 54.6878 162.096C53.5737 161.588 52.5054 160.981 51.4194 160.409C51.6839 162.804 54.0849 162.31 55.3894 163.299Z" fill="#FF7A00"/>
<path d="M43.5148 143.135C44.435 142.115 45.7748 141.221 46.1379 140.032C46.3953 139.187 45.4328 139.702 45.1154 140.162C44.4843 141.049 43.892 141.968 43.2856 142.872C43.3632 142.956 43.4372 143.044 43.5148 143.135Z" fill="#FF7A00"/>
<path d="M60.389 39.4515C59.2043 38.9675 57.9209 38.4275 56.9902 39.7004C56.6376 40.1809 56.9232 41.1031 56.9196 41.822C57.3286 41.1522 57.6036 40.2861 58.196 39.8653C58.6719 39.5146 59.5322 39.725 60.2233 39.6864L60.389 39.4515Z" fill="#FF7A00"/>
<path d="M61.7852 38.147L62.9839 37.9751C62.7195 36.3235 62.7089 34.5456 60.8191 33.7109L60.671 34.5666C61.7358 35.5345 62.4092 36.6391 61.7852 38.147Z" fill="#FF7A00"/>
<path d="M71.7242 141.845C71.0191 141.62 70.6665 141.378 70.462 141.466C69.864 141.758 69.2868 142.091 68.7344 142.462C69.0059 142.616 69.3338 142.956 69.5312 142.893C70.2841 142.591 71.0166 142.241 71.7242 141.845Z" fill="#FF7A00"/>
<path d="M30.741 172.806C31.425 173.951 32.1101 175.103 32.7965 176.26C32.9269 174.629 32.8846 173.097 30.741 172.806Z" fill="#FF7A00"/>
<path d="M56.1334 162.247L57.8575 163.65L59.9341 164.284C59.9059 164.085 59.9341 163.765 59.8389 163.702C58.686 163.026 57.8927 161.395 56.1334 162.247Z" fill="#FF7A00"/>
<path d="M62.8993 134.368L63.957 134.807V134.786V135.712L64.9231 135.736C64.8596 135.364 64.8949 134.737 64.7151 134.684C64.1236 134.512 63.5145 134.406 62.8993 134.368Z" fill="#FF7A00"/>
<path d="M57.6001 54.5093C57.5613 54.7583 57.5225 55.0038 57.4802 55.2493C57.5048 55.0038 57.5577 54.7583 57.6001 54.5093Z" fill="#FF7A00"/>
<path d="M82.855 60.9023L82.2133 60.5236L82.855 60.9023Z" fill="#FF7A00"/>
<path d="M24.0703 166.992C24.1937 167.185 24.3171 167.377 24.4228 167.57C24.3171 167.377 24.1937 167.195 24.0703 166.992Z" fill="#FF7A00"/>
<path d="M69.2209 114.829L69.4853 115.236L69.2209 114.829Z" fill="#FF7A00"/>
<path d="M83.6271 61.2493L82.922 60.9266L83.6271 61.2493Z" fill="#FF7A00"/>
<path d="M51.2643 58.4055L51.4653 58.2056C51.4179 58.2201 51.3749 58.2459 51.3398 58.2807C51.3048 58.3156 51.2789 58.3584 51.2643 58.4055Z" fill="#FF7A00"/>
<path d="M67.5709 108.633C67.5838 108.684 67.6082 108.732 67.6424 108.773C67.6766 108.813 67.7197 108.846 67.7683 108.867C67.8184 108.777 67.8586 108.682 67.8882 108.583C67.7799 108.57 67.6699 108.587 67.5709 108.633Z" fill="#FF7A00"/>
<path d="M69.5171 115.295L69.4748 115.555L69.5806 115.442L69.5171 115.295Z" fill="#FF7A00"/>
<path d="M29.6162 155.623C29.5953 155.668 29.5844 155.718 29.5844 155.768C29.5844 155.818 29.5953 155.868 29.6162 155.914C29.6215 155.817 29.6215 155.72 29.6162 155.623Z" fill="#FF7A00"/>
<path d="M74.6155 113.051L74.6473 112.952L74.5553 112.966L74.6155 113.051Z" fill="#FF7A00"/>
<path d="M113.173 127.218C115.01 125.935 118.394 128.46 119.255 124.764C119.332 124.413 119.406 124.097 119.484 123.761C119.176 123.901 118.883 124.073 118.61 124.273C114.668 127.814 110.747 126.359 106.876 124.174C106.418 123.915 106.241 123.161 105.931 122.635C108.237 121.646 110.514 120.531 112.866 119.731C113.631 119.465 114.65 119.931 115.556 120.061C115.514 119.921 115.489 119.665 115.426 119.658C114.132 119.458 112.552 118.735 111.59 119.219C108.868 120.583 106.375 122.126 103.509 119.7L103.234 119.931C105.12 123.512 107.253 126.801 111.851 127.197L113.173 127.218Z" fill="#FF7A00"/>
<path d="M136.591 176.53C136.055 173.374 135.618 170.218 134.937 167.114C134.638 165.754 133.83 164.47 132.081 164.533C131.623 164.551 131.179 164.867 130.727 165.049C131.679 165.75 133.086 166.283 133.485 167.227C134.19 168.878 134.366 170.779 134.571 172.595C134.75 174.208 134.066 176.102 136.369 176.803L136.591 176.53Z" fill="#FF7A00"/>
<path d="M30.5161 145.723C29.9802 142.567 29.543 139.411 28.8626 136.308C28.5629 134.947 27.7555 133.664 26.0067 133.727C25.5484 133.744 25.1041 134.06 24.6528 134.242C25.6048 134.944 27.0115 135.477 27.41 136.42C28.1151 138.072 28.2914 139.972 28.4959 141.789C28.6757 143.402 27.9917 145.295 30.294 145.997L30.5161 145.723Z" fill="#FF7A00"/>
<path d="M125.239 111.557C122.13 110.741 119.063 109.836 115.943 109.173C114.574 108.884 113.067 109.087 112.403 110.699C112.23 111.122 112.336 111.655 112.317 112.14C113.351 111.566 114.419 110.509 115.446 110.537C117.248 110.579 119.06 111.203 120.806 111.767C122.356 112.269 123.806 113.67 125.398 111.871L125.239 111.557Z" fill="#FF7A00"/>
<path d="M98.8513 170.779C100.198 169.218 101.788 167.798 102.811 166.048C103.551 164.772 103.343 164.141 101.111 163.807C99.2603 163.53 100.974 160.364 100.956 158.481L100.699 158.281C97.2471 161.91 102.056 166.935 98.601 170.554L98.8513 170.779Z" fill="#FF7A00"/>
<path d="M108.628 147.161C108.811 150.064 109.002 152.968 109.164 155.875C109.164 155.945 108.811 156.121 108.783 156.1C108.131 155.304 107.5 154.494 106.869 153.683L110.282 159.61L110.409 159.028C108.399 155.598 111.057 151.906 109.792 148.451C109.605 147.946 109.023 147.589 108.628 147.161Z" fill="#FF7A00"/>
<path d="M131.785 145.576C132.765 148.381 131.919 151.888 134.958 153.911C135.022 153.831 135.082 153.747 135.142 153.662L132.043 145.309L131.785 145.576Z" fill="#FF7A00"/>
<path d="M150.489 154.041C148.092 156.587 145.648 158.905 141.911 156.184L141.654 156.45C142.962 157.211 144.287 158.628 145.574 158.59C148.116 158.516 149.565 156.422 150.687 154.276C150.62 154.203 150.553 154.122 150.489 154.041Z" fill="#FF7A00"/>
<path d="M124.215 160.069C124.251 157.471 124.297 154.876 124.3 152.277C124.3 152.137 123.972 151.993 123.796 151.85C123.563 153.252 123.295 154.655 123.119 156.058C123.08 156.373 123.366 156.728 123.5 157.061C123.648 156.531 123.792 156.009 123.972 155.36V160.248C124.053 160.182 124.141 160.133 124.215 160.069Z" fill="#FF7A00"/>
<path d="M127.759 134.814C125.46 131.693 124.071 128.302 124.586 124.339C124.586 124.202 124.448 124.045 124.374 123.897C124.272 124.01 124.089 124.115 124.081 124.248C123.764 128.302 123.334 132.394 127.512 135.031L127.759 134.814Z" fill="#FF7A00"/>
<path d="M106.361 151.734C106.763 149.562 107.166 147.391 107.57 145.222C107.274 144.433 106.982 143.64 106.685 142.851L106.403 143.104L106.361 151.734Z" fill="#FF7A00"/>
<path d="M104.496 137.595L105.906 137.244C105.554 136.459 105.374 135.161 104.827 134.986C103.325 134.498 104.517 136.311 104.224 136.188C103.202 135.764 102.299 135.052 101.355 134.435L101.125 134.688L104.246 137.809L104.496 137.595Z" fill="#FF7A00"/>
<path d="M136.584 130.255C134.676 129.157 132.776 128.049 130.851 126.983C130.699 126.899 130.393 127.092 130.146 127.155C131.027 128.014 131.785 129.105 132.829 129.666C133.872 130.227 135.18 130.244 136.372 130.5C136.446 130.416 136.517 130.336 136.584 130.255Z" fill="#FF7A00"/>
<path d="M113.173 127.218H111.851L110.765 128.835H114.234L113.173 127.218Z" fill="#FF7A00"/>
<path d="M98.9782 137.875L101.57 136.122C101.217 135.922 100.819 135.487 100.568 135.564C99.7256 135.824 98.1002 133.383 98.0579 136.216C98.0509 136.686 98.5621 137.163 98.9782 137.875Z" fill="#FF7A00"/>
<path d="M99.1933 154.434C98.2837 151.975 97.3717 149.52 96.4573 147.07L96.2035 147.266C95.382 150.366 97.3846 152.425 98.9641 154.63L99.1933 154.434Z" fill="#FF7A00"/>
<path d="M141.911 156.184L135.152 153.663C135.092 153.747 135.032 153.831 134.969 153.912L141.668 156.45L141.911 156.184Z" fill="#FF7A00"/>
<path d="M106.686 142.851C106.946 140.691 106.079 138.994 104.496 137.591L104.239 137.815C104.96 139.576 105.682 141.337 106.403 143.1L106.686 142.851Z" fill="#FF7A00"/>
<path d="M84.3005 159.442C84.6178 160.227 84.7765 161.353 86.0246 160.764C86.5816 160.501 86.9413 159.813 87.389 159.315L84.3005 159.459V159.442Z" fill="#FF7A00"/>
<path d="M101.347 134.445C101.217 134.126 101.101 133.804 100.96 133.488L99.1968 129.631C99.0664 129.725 98.8125 129.88 98.8266 129.908C99.5811 131.514 100.353 133.113 101.125 134.712L101.347 134.445Z" fill="#FF7A00"/>
<path d="M98.3294 136.96C97.5079 136.258 97.0249 135.557 96.7463 135.641C96.1681 135.796 95.6886 136.343 95.1844 136.739C95.537 136.981 95.8896 137.388 96.281 137.419C96.7816 137.461 97.3105 137.209 98.3294 136.96Z" fill="#FF7A00"/>
<path d="M130.202 140.446C130.498 138.089 129.529 136.28 127.759 134.814L127.498 135.014L129.966 140.625L130.202 140.446Z" fill="#FF7A00"/>
<path d="M123.972 160.248C124.201 161.185 124.177 162.335 124.737 162.994C125.199 163.541 126.377 163.758 127.205 163.678C128.217 163.576 127.847 163.061 127.145 162.885C126.765 162.791 126.088 163.064 125.968 162.885C125.316 162.005 124.797 161.023 124.23 160.08C124.142 160.133 124.053 160.182 123.972 160.248Z" fill="#FF7A00"/>
<path d="M129.955 140.621C130.273 142.374 129.391 144.577 131.785 145.576L132.053 145.309L130.202 140.446L129.955 140.621Z" fill="#FF7A00"/>
<path d="M121.769 117.532L124.854 117.182C124.413 116.831 123.93 116.193 123.535 116.242C122.537 116.365 121.578 116.803 120.605 117.115L121.769 117.532Z" fill="#FF7A00"/>
<path d="M100.956 158.481C103.04 155.98 100.251 155.581 99.1933 154.434L98.9641 154.63L100.699 158.281L100.956 158.481Z" fill="#FF7A00"/>
<path d="M103.509 119.707C102.832 118.461 102.157 117.216 101.485 115.972C101.337 116.067 101.051 116.235 101.055 116.242C101.76 117.48 102.5 118.697 103.234 119.938L103.509 119.707Z" fill="#FF7A00"/>
<path d="M96.4573 147.063C95.9813 146.032 95.5053 145.001 95.0082 143.984C94.8609 144.011 94.7167 144.054 94.5781 144.11L96.2034 147.266L96.4573 147.063Z" fill="#FF7A00"/>
<path d="M104.045 181.194L104.422 180.492C104.302 180.717 104.175 180.955 104.045 181.194Z" fill="#FF7A00"/>
<path d="M155.52 153.151L155.457 152.341L155.52 153.151Z" fill="#FF7A00"/>
<path d="M104.718 180.479L105.102 180.871L104.718 180.479Z" fill="#FF7A00"/>
<path d="M104.397 181.531L104.045 181.18L104.397 181.531Z" fill="#FF7A00"/>
<path d="M86.1304 124.676C86.1304 124.823 86.1304 124.97 86.1304 125.118C86.1339 124.97 86.1304 124.823 86.1304 124.676Z" fill="#FF7A00"/>
<path d="M50.7813 201.912L44.2234 200.158L43.7298 200.267C45.3446 200.968 46.9735 201.624 48.5636 202.371C48.9585 202.557 49.2265 202.995 49.5543 203.314C49.2265 203.549 48.8492 204.033 48.5742 203.974C46.4587 203.493 44.3433 202.89 42.2279 202.364C41.6629 202.256 41.0895 202.198 40.5143 202.189C40.4587 202.299 40.4229 202.417 40.4086 202.539C41.5826 203.076 42.7285 203.735 43.959 204.075C45.26 204.426 47.0334 204.03 47.9114 204.777C49.5614 206.162 52.6993 208.178 47.8726 209.756L48.063 210.009L51.8884 210.963L52.389 210.556C51.6134 207.729 49.3604 205.163 50.7813 201.912Z" fill="#FF7A00"/>
<path d="M52.5688 195.712C54.1907 195.252 54.0461 198.605 56.0522 197.307C55.8359 197.071 55.6001 196.853 55.3471 196.655C52.6464 194.804 53.3339 191.746 53.1611 189.291C53.0131 187.145 55.541 188.498 56.775 188.046C60.2549 186.759 64.5317 188.989 67.4933 185.619L67.2958 185.335C63.0649 187.113 58.344 185.798 54.2858 186.973C50.1008 188.179 53.3127 192.745 52.5688 195.712Z" fill="#FF7A00"/>
<path d="M72.9828 193.744C70.7934 190.588 70.1058 187.201 71.2588 183.494L67.3064 185.325L67.5038 185.609L72.9828 193.744Z" fill="#FF7A00"/>
<path d="M52.389 210.57L51.8883 210.976C51.9059 214.515 56.6763 213.719 57.3955 217.152C57.7481 218.846 57.9984 215.37 59.2853 216.068C59.8001 215.664 60.3137 215.259 60.8261 214.855C58.6789 211.646 62.6136 210.18 62.8816 207.677C62.9415 207.112 62.6066 206.505 62.455 205.923C60.5969 208.729 61.295 213.449 56.9195 214.217C54.8605 214.571 53.496 212.316 52.389 210.57Z" fill="#FF7A00"/>
<path d="M30.4377 211.948C29.0909 207.95 27.7829 203.938 26.3585 199.969C26.1187 199.306 25.3677 198.826 24.853 198.261C25.0081 198.811 25.0222 199.46 25.336 199.895C28.012 203.574 25.8437 209.146 30.1909 212.169C30.2756 212.081 30.3566 212.018 30.4377 211.948Z" fill="#FF7A00"/>
<path d="M47.8726 209.77C46.5857 209.192 43.7016 210.71 44.576 207.284C44.5869 207.121 44.5462 206.96 44.4596 206.821C43.9096 206.919 43.2856 206.916 42.8343 207.189C40.8528 208.396 40.3663 206.365 39.3085 205.636C39.2345 205.72 39.1675 205.804 39.1005 205.888C41.2442 209.101 44.1071 210.756 48.0841 210.009L47.8726 209.77Z" fill="#FF7A00"/>
<path d="M23.633 189.614L28.7983 187.58L29.3941 187.008C28.4422 185.49 29.9336 184.634 30.3602 183.501C27.8498 184.203 27.6736 188.162 24.3664 187.727C24.2113 188.383 21.5669 188.109 23.633 189.614Z" fill="#FF7A00"/>
<path d="M43.7545 184.89C39.3367 181.622 36.9991 189.038 32.8246 186.994C33.9705 188.702 36.2199 188.523 36.851 187.576C38.6527 184.872 41.3957 185.56 43.7545 184.89Z" fill="#FF7A00"/>
<path d="M23.8375 207.025C22.4272 210.657 22.6705 213.817 26.3866 216.009L26.644 215.805C23.8411 213.519 23.9292 210.387 24.102 207.228L23.8375 207.025Z" fill="#FF7A00"/>
<path d="M50.6686 214.813C50.048 215.749 49.3711 216.373 49.4945 216.664C49.7448 217.261 50.4253 217.678 50.9295 218.165C51.282 217.773 51.9872 217.32 51.9131 216.994C51.8109 216.373 51.282 215.823 50.6686 214.813Z" fill="#FF7A00"/>
<path d="M39.2873 205.65C37.729 204.559 36.1741 203.462 34.5981 202.396C34.4923 202.322 34.2173 202.494 34.0199 202.553C34.9754 203.49 35.8603 204.524 36.9251 205.32C37.4786 205.734 38.3354 205.724 39.0793 205.902C39.1463 205.818 39.2133 205.734 39.2873 205.65Z" fill="#FF7A00"/>
<path d="M17.2303 184.728C16.8143 185.055 16.3242 185.43 15.8658 185.837C15.9954 186.038 16.1367 186.231 16.2889 186.415C18.757 184.171 20.3506 189.126 22.7692 187.166L17.2303 184.728Z" fill="#FF7A00"/>
<path d="M26.8309 189.319C25.0434 188.376 24.5392 192.019 22.6 190.494L22.8645 191.767L27.1447 189.919L26.8309 189.319Z" fill="#FF7A00"/>
<path d="M43.7298 200.281L44.2234 200.173C44.4456 199.513 47.6046 200.358 45.1683 198.342C44.8158 198.5 44.4385 198.777 44.0613 198.798C42.9048 198.864 41.9811 196.915 40.6413 198.409L43.7298 200.281Z" fill="#FF7A00"/>
<path d="M26.8309 189.319L27.1306 189.919C29.7185 190.592 29.172 187.857 30.3496 186.994H29.3835L28.7877 187.566L26.8309 189.319Z" fill="#FF7A00"/>
<path d="M43.0493 226.837C43.074 229.008 44.0048 228.135 44.9003 227.377C44.4725 226.73 44.0471 226.081 43.624 225.431C43.4442 225.898 43.2503 226.368 43.0493 226.837Z" fill="#FF7A00"/>
<path d="M24.5603 185.048C27.4655 184.185 28.5127 181.429 30.3249 179.437L24.5603 185.048Z" fill="#FF7A00"/>
<path d="M46.97 196.248C48.7963 195.477 50.9435 200.05 52.5689 195.919L46.97 196.248Z" fill="#FF7A00"/>
<path d="M20.3611 189.288C21.3836 189.593 20.8618 189.288 20.7137 189.417C19.7864 190.266 18.9508 191.202 18.087 192.135C18.0588 192.167 18.355 192.486 18.4995 192.682C19.2117 191.392 19.9169 190.098 20.3611 189.288Z" fill="#FF7A00"/>
<path d="M24.102 207.228C25.6674 204.636 23.0442 202.897 22.741 200.684C22.741 200.639 22.4766 200.628 22.3356 200.6C22.3647 201.277 22.4424 201.951 22.5683 202.616C22.9455 204.1 23.4109 205.559 23.8375 207.024L24.102 207.228Z" fill="#FF7A00"/>
<path d="M15.0197 174.594C14.2052 173.945 13.7434 173.468 13.1828 173.191C13.0453 173.128 12.5764 173.774 12.259 174.093C12.6822 174.553 13.1552 174.966 13.6693 175.323C13.8562 175.436 14.3286 174.997 15.0197 174.594Z" fill="#FF7A00"/>
<path d="M20.7561 173.062L19.0143 174.208C19.6267 174.651 20.2648 175.057 20.9253 175.425C21.0134 175.471 21.6657 174.85 21.6304 174.636C21.5035 174.142 21.1227 173.697 20.7561 173.062Z" fill="#FF7A00"/>
<path d="M30.7797 217.731C31.305 215.767 31.7916 213.803 30.4271 211.948C30.346 212.018 30.2649 212.088 30.1803 212.155C30.2931 213.957 30.4036 215.759 30.5117 217.559L30.7797 217.731Z" fill="#FF7A00"/>
<path d="M64.1333 179.612L65.3991 179.033C64.9195 178.77 64.4647 178.399 63.95 178.29C63.6926 178.237 63.333 178.665 63.0192 178.876L64.1333 179.612Z" fill="#FF7A00"/>
<path d="M45.5174 197.704L46.896 196.273L43.0176 196.024L45.5174 197.704Z" fill="#FF7A00"/>
<path d="M73.0392 193.846C77.6015 201.985 70.2891 198.352 67.5849 199.317C67.1544 199.525 66.7497 199.783 66.3791 200.085C69.8096 199.59 73.1626 199.538 76.1277 201.747C75.9585 200.747 75.7752 199.751 75.6271 198.752C75.3591 196.802 74.7316 195.052 73.0392 193.846Z" fill="#FF7A00"/>
<path d="M93.8099 116.197C85.3086 124.892 87.1406 114.457 84.9263 111.456C84.5047 110.999 84.0313 110.592 83.5154 110.244C85.4111 114.321 86.7243 118.467 85.0592 122.972C86.2485 122.39 87.4282 121.792 88.6254 121.236C90.9688 120.178 92.9279 118.748 93.8099 116.197Z" fill="#FF7A00"/>
<path d="M76.9986 207.452C77.1961 207.14 76.9457 207.589 76.6461 208.003C76.2194 208.592 75.7576 209.16 75.3098 209.735C75.1653 209.248 75.1159 208.704 74.855 208.294C74.5941 207.884 74.4601 206.435 73.5223 207.61C73.2437 207.961 73.7373 209.03 74.0476 209.69C74.2873 210.191 74.9854 210.998 75.1511 210.928C76.6179 210.293 78.0105 209.493 79.4243 208.743C77.9964 208.925 80.1119 206.008 76.9986 207.452Z" fill="#FF7A00"/>
<path d="M102.564 201.294L102.955 200.874C101.608 198.615 100.265 196.357 98.9041 194.109C98.8195 193.969 98.6009 193.913 98.4458 193.818C98.3867 194.092 98.3724 194.374 98.4035 194.653C99.1403 197.265 99.7574 199.962 102.564 201.294Z" fill="#FF7A00"/>
<path d="M83.6835 199.292C83.0101 198.012 82.3754 196.799 81.7408 195.582C81.6139 195.855 81.3283 196.16 81.3882 196.392C81.769 197.995 82.2203 199.58 82.6469 201.172L83.6835 199.292Z" fill="#FF7A00"/>
<path d="M88.0308 182.109C87.5407 182.846 87.1035 183.263 87.1846 183.428C87.5811 184.157 88.0251 184.86 88.5138 185.532C88.6266 185.374 88.8664 185.181 88.8382 185.058C88.6443 184.206 88.3904 183.382 88.0308 182.109Z" fill="#FF7A00"/>
<path d="M66.2911 200.158L62.5996 201.21L63.5022 201.894C63.9253 200.509 66.4956 202.546 66.2911 200.158Z" fill="#FF7A00"/>
<path d="M107.218 197.96C107.218 197.879 107.218 197.795 107.218 197.714C106.692 198.377 106.16 199.04 105.659 199.723C105.638 199.755 105.92 200.008 106.061 200.155C106.446 199.425 106.826 198.692 107.218 197.96Z" fill="#FF7A00"/>
<path d="M16.7861 157.274C17.3256 156.398 17.7346 155.984 17.8439 155.521C17.9073 155.17 17.5371 154.774 17.3608 154.395C16.9518 154.837 16.4406 155.226 16.1797 155.742C16.0422 155.973 16.43 156.443 16.7861 157.274Z" fill="#FF7A00"/>
<path d="M44.4596 41.6082C44.4596 41.4959 44.4349 41.3872 44.4173 41.2785C44.3997 41.3332 44.3944 41.391 44.4017 41.448C44.409 41.505 44.4288 41.5596 44.4596 41.6082Z" fill="#FF7A00"/>
<path d="M24.6873 169.24C24.5991 168.889 24.5075 168.5 24.4193 168.131C24.5075 168.5 24.5991 168.871 24.6873 169.24Z" fill="#FF7A00"/>
<path d="M41.9916 179.753L41.639 179.781C42.1573 182.235 35.6946 177.708 38.7549 182.618C39.3543 183.578 40.4015 184.14 41.5544 183.196C42.7708 182.2 42.5839 180.998 41.9916 179.753Z" fill="#FF7A00"/>
<path d="M40.5532 179.1C38.0851 179.802 35.0142 178.048 33.0222 180.854C35.8357 181.555 38.3637 181.054 40.5532 179.1Z" fill="#FF7A00"/>
<path d="M50.8412 201.866L54.1554 203.735L54.4446 203.479C53.9897 202.111 52.5195 200.695 54.6385 199.446C52.4455 198.815 52.4031 201.522 50.8412 201.866Z" fill="#FF7A00"/>
<path d="M54.7161 199.401L57.5155 198.563L56.1052 197.364L54.7161 199.401Z" fill="#FF7A00"/>
<path d="M56.4471 203.809L54.448 203.479L54.1589 203.735C55.2589 204.717 56.4154 206.411 57.9173 205.583C59.6802 204.601 56.1545 205.148 57.1593 203.974L56.4471 203.809Z" fill="#FF7A00"/>
<path d="M61.4573 195.421L58.8447 197.174C59.0033 197.318 59.1972 197.616 59.3136 197.584C60.6075 197.157 61.8874 196.683 63.1672 196.22L61.4573 195.421Z" fill="#FF7A00"/>
<path d="M56.4471 203.665L56.842 203.283L56.4471 203.665Z" fill="#FF7A00"/>
<path d="M27.9042 105.874C27.718 105.81 27.3171 105.777 26.7016 105.777H20.4575C20.0363 105.777 19.7002 105.713 19.4492 105.584C19.1981 105.447 19.0726 105.201 19.0726 104.846C19.0726 104.588 19.1333 104.382 19.2548 104.229C19.5626 104.31 19.8582 104.35 20.1416 104.35C20.4251 104.35 20.6478 104.322 20.8098 104.265C20.9717 104.201 21.1135 104.092 21.2349 103.939C21.4779 103.616 21.5994 103.08 21.5994 102.33V90.1858C21.5994 89.4359 21.154 88.9682 20.2631 88.7827C19.7043 88.6698 19.3399 88.5408 19.1698 88.3957C18.9997 88.2505 18.9147 88.0933 18.9147 87.9239C18.9147 87.553 18.9795 87.303 19.109 87.174C19.2548 87.2143 19.3884 87.2345 19.5099 87.2345H22.5226L26.8473 87.1135C30.6375 87.1135 33.0348 88.1416 34.039 90.1979C34.4034 90.9398 34.5857 91.6817 34.5857 92.4236C34.5857 93.1654 34.533 93.7985 34.4277 94.3226C34.3224 94.8468 34.1402 95.3588 33.8811 95.8588C33.63 96.3507 33.2939 96.8184 32.8728 97.2619C32.4516 97.6973 31.9252 98.0804 31.2935 98.411C29.9249 99.1206 28.1755 99.4754 26.0456 99.4754H25.5839C25.3572 99.4754 25.2438 99.3303 25.2438 99.04C25.2438 98.4029 25.4179 98.0441 25.7662 97.9634C28.8113 98.028 30.6537 97.1248 31.2935 95.254C31.4879 94.6653 31.5851 94.0363 31.5851 93.367C31.5851 92.6977 31.5122 92.0849 31.3664 91.5285C31.2206 90.964 30.9574 90.464 30.5768 90.0286C29.7345 89.0771 28.3416 88.6013 26.3979 88.6013C25.6123 88.6013 25.0899 88.7706 24.8308 89.1093C24.5878 89.4077 24.4663 90.0125 24.4663 90.9237V103.007C24.5068 103.636 25.0089 104.019 25.9727 104.156C26.8392 104.277 27.3778 104.39 27.5884 104.495C27.7989 104.6 27.9366 104.705 28.0014 104.81C28.0662 104.906 28.0986 105.027 28.0986 105.173C28.0986 105.479 28.0338 105.713 27.9042 105.874Z" fill="#FF9900"/>
<path d="M49.8679 100.395C50.0866 100.209 50.3174 100.116 50.5603 100.116C50.9329 100.116 51.1475 100.169 51.2042 100.274C51.52 100.903 51.678 101.943 51.678 103.394C51.678 104.402 51.5646 105.132 51.3378 105.584C51.2649 105.713 51.188 105.777 51.107 105.777H37.6956C36.7318 105.777 36.2499 105.491 36.2499 104.919C36.2499 104.612 36.3147 104.378 36.4443 104.217C36.7197 104.298 36.9869 104.338 37.2461 104.338C37.5052 104.338 37.7279 104.318 37.9142 104.277C38.1005 104.237 38.2746 104.152 38.4366 104.023C38.8253 103.725 39.0197 103.221 39.0197 102.511V90.2584C39.0197 89.5569 38.7362 89.1093 38.1693 88.9158C38.0074 88.8593 37.8373 88.8109 37.6591 88.7706C37.489 88.7222 37.323 88.6779 37.161 88.6376C37.0072 88.5892 36.8695 88.5368 36.748 88.4803C36.4726 88.3352 36.335 88.1376 36.335 87.8876C36.335 87.557 36.3998 87.3191 36.5293 87.174C36.6751 87.2143 36.8209 87.2345 36.9667 87.2345H49.3941C50.1392 87.2345 50.6049 87.303 50.7911 87.4401C51.1313 87.682 51.3014 88.2142 51.3014 89.0367C51.3014 89.827 51.2325 90.4721 51.0948 90.9721C50.9653 91.472 50.8721 91.7704 50.8154 91.8672C50.7345 92.0123 50.5765 92.0849 50.3417 92.0849C50.0015 92.0849 49.7667 92.0446 49.6371 91.9639C49.5156 91.8752 49.4508 91.8107 49.4427 91.7704C49.3374 90.6173 49.1552 89.8834 48.896 89.569C48.6369 89.2464 48.3291 89.0287 47.9728 88.9158C47.6246 88.7948 47.167 88.7343 46.6001 88.7343H43.8911C43.0326 88.7343 42.5062 88.819 42.3118 88.9884C42.1255 89.1577 42.0081 89.3553 41.9595 89.581C41.9109 89.7988 41.8866 90.081 41.8866 90.4278V95.5806L42.6034 95.5927C44.3932 95.5927 46.0534 95.4354 47.5841 95.1209C47.6974 95.1774 47.7987 95.3387 47.8878 95.6048C47.9768 95.8628 48.0214 96.1208 48.0214 96.3789C48.0214 96.8143 47.9485 97.1933 47.8027 97.5159C47.2682 97.5643 46.6527 97.5885 45.9562 97.5885C45.2597 97.5885 43.9032 97.4756 41.8866 97.2498V102.705C41.8866 103.31 42.0486 103.717 42.3725 103.927C42.6479 104.104 43.1419 104.193 43.8546 104.193L45.689 104.144C47.4626 104.08 48.6166 103.834 49.1512 103.407C49.4508 103.165 49.6492 102.846 49.7464 102.451C49.8436 102.056 49.8922 101.661 49.8922 101.266C49.8922 100.862 49.8841 100.572 49.8679 100.395Z" fill="#FF9900"/>
<path d="M65.5996 104.35C65.9398 104.406 66.1949 104.435 66.3649 104.435C66.535 104.435 66.701 104.419 66.863 104.386C67.0331 104.346 67.1829 104.286 67.3125 104.205C67.604 104.027 67.7498 103.749 67.7498 103.37C67.7498 103.056 67.6526 102.705 67.4583 102.318L66.3163 99.4996H58.6266L57.2661 102.935C57.1365 103.249 57.0717 103.479 57.0717 103.624C57.0717 103.761 57.0919 103.866 57.1324 103.939C57.181 104.003 57.2499 104.06 57.3389 104.108C57.4361 104.156 57.5536 104.197 57.6912 104.229L58.1893 104.362C58.7238 104.451 59.068 104.531 59.2219 104.604C59.5377 104.757 59.6957 104.983 59.6957 105.281C59.6957 105.499 59.6349 105.685 59.5134 105.838C59.3596 105.797 59.2178 105.777 59.0883 105.777H54.144C53.0669 105.777 52.5283 105.483 52.5283 104.894C52.5283 104.62 52.5891 104.398 52.7105 104.229C53.0102 104.31 53.2612 104.35 53.4637 104.35C53.6743 104.35 53.8484 104.318 53.9861 104.253C54.1319 104.189 54.2695 104.08 54.3991 103.927C54.6178 103.661 54.8729 103.128 55.1644 102.33L61.1656 87.8634C61.3356 87.4764 61.8175 87.2103 62.6112 87.0651C62.8299 87.0248 63.0607 87.0046 63.3036 87.0046C63.7976 87.0046 64.1014 87.1377 64.2147 87.4038L65.4295 90.4278C67.7701 95.9273 69.1225 99.1367 69.487 100.056L70.5803 102.911C70.799 103.532 70.9812 103.915 71.127 104.06C71.2727 104.205 71.4307 104.306 71.6007 104.362C71.7708 104.419 71.9449 104.467 72.1231 104.507C72.3094 104.54 72.4714 104.584 72.609 104.64C72.9168 104.777 73.0707 104.987 73.0707 105.269C73.0707 105.487 73.0099 105.673 72.8884 105.826C72.7346 105.785 72.5969 105.765 72.4754 105.765H66.6808C66.2678 105.765 65.9438 105.717 65.7089 105.62C65.4822 105.515 65.3688 105.358 65.3688 105.148C65.3688 104.785 65.4457 104.519 65.5996 104.35ZM65.6118 97.782L62.429 89.9439L59.3069 97.782H65.6118Z" fill="#FF9900"/>
<path d="M82.4125 105.898L78.3794 105.765H75.3059C74.8848 105.765 74.5325 105.697 74.249 105.56C73.9656 105.414 73.8238 105.237 73.8238 105.027C73.8238 104.64 73.8846 104.37 74.0061 104.217C74.2814 104.298 74.573 104.338 74.8807 104.338C75.1885 104.338 75.4395 104.318 75.6339 104.277C75.8364 104.237 76.0145 104.152 76.1684 104.023C76.5248 103.733 76.7029 103.229 76.7029 102.511V90.1858C76.7029 89.4359 76.2453 88.9682 75.3302 88.7827C74.7471 88.6618 74.3705 88.5327 74.2004 88.3957C74.0385 88.2505 73.9575 88.0933 73.9575 87.9239C73.9575 87.553 74.0223 87.303 74.1518 87.174C74.2976 87.2143 74.4353 87.2345 74.5649 87.2345C74.5649 87.2345 75.7675 87.2345 78.1728 87.2345C78.5454 87.2345 79.0475 87.2143 79.6792 87.174C80.319 87.1337 81.2058 87.1135 82.3396 87.1135C83.4815 87.1135 84.502 87.2183 85.4009 87.428C86.308 87.6377 87.0531 87.932 87.6362 88.311C88.7538 89.0448 89.3126 90.077 89.3126 91.4075C89.3126 92.9235 88.6728 94.1492 87.3932 95.0846C86.9154 95.4314 86.3039 95.7297 85.5588 95.9797C87.948 96.1733 89.4827 97.0845 90.163 98.7134C90.3735 99.2375 90.4788 99.8625 90.4788 100.588C90.4788 101.306 90.3128 102.003 89.9807 102.681C89.6487 103.35 89.1466 103.923 88.4744 104.398C87.0814 105.398 85.0608 105.898 82.4125 105.898ZM79.5334 95.4959L81.3678 95.508C81.7322 95.508 82.1655 95.508 82.6676 95.508C83.1778 95.508 83.6759 95.4193 84.1618 95.2419C84.6477 95.0564 85.0527 94.8105 85.3766 94.504C86.0407 93.8751 86.3728 93.0687 86.3728 92.0849C86.3728 90.964 86.0974 90.1415 85.5467 89.6173C84.8988 88.9803 83.7771 88.6618 82.1817 88.6618C81.0965 88.6618 80.4202 88.7626 80.153 88.9642C79.8938 89.1658 79.7237 89.4036 79.6427 89.6778C79.5699 89.9439 79.5334 90.2947 79.5334 90.7301V95.4959ZM82.4611 97.1046C81.141 97.1046 80.1651 97.1127 79.5334 97.1288V102.862C79.5334 103.677 80.0679 104.132 81.137 104.229C81.469 104.253 81.9306 104.265 82.5218 104.265C83.113 104.265 83.7326 104.205 84.3805 104.084C85.0284 103.963 85.5872 103.757 86.0569 103.467C87.0369 102.854 87.5268 101.882 87.5268 100.552C87.5268 98.2537 85.8383 97.1046 82.4611 97.1046Z" fill="#FF9900"/>
<path d="M100.477 105.874C100.29 105.81 99.8895 105.777 99.274 105.777H94.2083C93.7871 105.777 93.451 105.713 93.2 105.584C92.9489 105.447 92.8234 105.201 92.8234 104.846C92.8234 104.588 92.8841 104.382 93.0056 104.229C93.3295 104.31 93.6252 104.35 93.8924 104.35C94.1678 104.35 94.3824 104.322 94.5363 104.265C94.6982 104.209 94.8359 104.108 94.9493 103.963C95.2003 103.657 95.334 103.153 95.3502 102.451V90.0891C95.3502 89.452 95.172 89.0529 94.8157 88.8916C94.7023 88.8351 94.5484 88.7868 94.354 88.7464C94.1597 88.7061 93.9653 88.6658 93.7709 88.6255C93.5847 88.5771 93.4267 88.5206 93.2971 88.4561C93.038 88.3271 92.9084 88.1094 92.9084 87.803C92.9084 87.5046 92.9692 87.2828 93.0906 87.1377C93.2769 87.2022 93.6778 87.2345 94.2933 87.2345H99.2375C99.6587 87.2345 99.9948 87.303 100.246 87.4401C100.505 87.5691 100.635 87.811 100.635 88.1658C100.635 88.4319 100.57 88.6376 100.44 88.7827C100.132 88.7021 99.7964 88.6618 99.4319 88.6618C98.6463 88.6618 98.2414 89.2988 98.2171 90.5729V102.923C98.2171 103.56 98.3953 103.963 98.7516 104.132C98.865 104.181 99.0189 104.225 99.2132 104.265C99.4076 104.306 99.5979 104.35 99.7842 104.398C99.9786 104.439 100.141 104.491 100.27 104.556C100.537 104.693 100.671 104.91 100.671 105.209C100.671 105.491 100.606 105.713 100.477 105.874Z" fill="#FF9900"/>
<path d="M110.839 105.874C110.653 105.81 110.256 105.777 109.648 105.777H104.692C104.271 105.777 103.935 105.713 103.684 105.584C103.433 105.447 103.307 105.201 103.307 104.846C103.307 104.588 103.368 104.382 103.489 104.229C103.797 104.31 104.093 104.35 104.376 104.35C104.66 104.35 104.882 104.322 105.044 104.265C105.206 104.201 105.348 104.092 105.469 103.939C105.712 103.616 105.834 103.08 105.834 102.33V89.956C105.81 89.3915 105.623 89.0327 105.275 88.8795C105.17 88.8311 105.024 88.7868 104.838 88.7464C104.66 88.7061 104.481 88.6658 104.303 88.6255C104.133 88.5771 103.987 88.5206 103.866 88.4561C103.623 88.3271 103.502 88.1578 103.502 87.9481C103.502 87.5691 103.566 87.299 103.696 87.1377C103.882 87.2022 104.283 87.2345 104.899 87.2345H106.478L110.742 87.1135L111.264 87.1014C113.759 87.1014 115.625 87.5449 116.864 88.4319C118.103 89.3109 118.723 90.5527 118.723 92.1575C118.723 93.359 118.33 94.4637 117.545 95.4717C116.67 96.5926 115.463 97.3506 113.925 97.7457C114.346 98.036 114.823 98.5682 115.358 99.3424L116.646 101.217C117.852 102.967 118.853 103.842 119.646 103.842C119.946 103.842 120.173 103.814 120.327 103.757L120.63 103.636C120.695 103.612 120.768 103.6 120.849 103.6C120.93 103.6 121.015 103.665 121.104 103.794C121.193 103.915 121.238 104.056 121.238 104.217C121.238 104.378 121.169 104.572 121.031 104.798C120.893 105.015 120.699 105.213 120.448 105.39C119.881 105.802 119.262 106.007 118.589 106.007C117.917 106.007 117.362 105.894 116.925 105.668C116.496 105.443 116.099 105.148 115.735 104.785C115.378 104.415 115.05 103.995 114.751 103.528C114.459 103.06 114.184 102.58 113.925 102.088L113.208 100.649C112.698 99.6004 112.289 98.9271 111.981 98.6287C111.681 98.3223 111.406 98.1691 111.155 98.1691H109.928C109.725 98.1691 109.624 98.0239 109.624 97.7336C109.624 97.3304 109.778 97.0159 110.086 96.7901C110.191 96.7176 110.507 96.6773 111.033 96.6692C111.56 96.6531 112.151 96.5402 112.807 96.3305C113.471 96.1208 114.018 95.8346 114.447 95.4717C115.281 94.754 115.698 93.746 115.698 92.4478C115.698 91.3591 115.334 90.4681 114.605 89.7746C113.779 88.9924 112.629 88.5932 111.155 88.5771C110.183 88.5771 109.535 88.7222 109.211 89.0125C108.887 89.2867 108.717 89.8068 108.701 90.5729V102.923C108.701 103.56 108.879 103.963 109.235 104.132C109.349 104.181 109.499 104.225 109.685 104.265C109.871 104.306 110.049 104.35 110.219 104.398C110.398 104.439 110.547 104.491 110.669 104.556C110.912 104.685 111.033 104.858 111.033 105.076C111.033 105.447 110.969 105.713 110.839 105.874Z" fill="#FF9900"/>
<path d="M139.678 88.6497C139.063 88.6497 138.743 89.2867 138.719 90.5608V97.8183C138.719 100.479 138.059 102.511 136.739 103.915C135.443 105.31 133.592 106.007 131.187 106.007C129.146 106.007 127.474 105.495 126.17 104.471C124.518 103.189 123.692 101.06 123.692 98.0844V89.7625C123.683 89.4157 123.643 89.1738 123.57 89.0367C123.505 88.8996 123.351 88.8069 123.108 88.7585C122.865 88.7101 122.647 88.6658 122.452 88.6255C122.266 88.5771 122.108 88.5206 121.979 88.4561C121.72 88.3271 121.59 88.1094 121.59 87.803C121.59 87.5207 121.655 87.299 121.784 87.1377C121.971 87.2022 122.371 87.2345 122.987 87.2345H127.7C128.624 87.2345 129.085 87.5449 129.085 88.1658C129.085 88.44 129.025 88.6456 128.903 88.7827C128.603 88.7021 128.32 88.6618 128.053 88.6618C127.794 88.6618 127.583 88.694 127.421 88.7585C127.267 88.815 127.125 88.9198 126.996 89.073C126.704 89.4198 126.559 89.956 126.559 90.6818V97.2377C126.559 99.7294 127.061 101.52 128.065 102.608C128.842 103.439 129.919 103.854 131.296 103.854C134.779 103.854 136.52 101.693 136.52 97.3707V90.0891C136.52 89.452 136.342 89.0529 135.985 88.8916C135.872 88.8351 135.714 88.7868 135.512 88.7464C135.317 88.7061 135.123 88.6658 134.929 88.6255C134.742 88.5771 134.584 88.5206 134.455 88.4561C134.196 88.3271 134.066 88.1094 134.066 87.803C134.066 87.5046 134.131 87.2828 134.26 87.1377C134.447 87.2022 134.848 87.2345 135.463 87.2345H139.496C139.909 87.2345 140.241 87.299 140.492 87.428C140.751 87.557 140.881 87.7989 140.881 88.1537C140.881 88.4279 140.82 88.6335 140.699 88.7706C140.375 88.69 140.035 88.6497 139.678 88.6497Z" fill="#FF9900"/>
</svg>
