<svg width="35" height="35" viewBox="0 0 35 35" fill="none" xmlns="http://www.w3.org/2000/svg">
<path d="M11.2 2.09998C6.18098 2.09998 2.09998 6.18098 2.09998 11.2V23.8C2.09998 28.819 6.18098 32.9 11.2 32.9H23.8C28.819 32.9 32.9 28.819 32.9 23.8V11.2C32.9 6.18098 28.819 2.09998 23.8 2.09998H11.2ZM25.9 7.69998C26.67 7.69998 27.3 8.32998 27.3 9.09998C27.3 9.86998 26.67 10.5 25.9 10.5C25.13 10.5 24.5 9.86998 24.5 9.09998C24.5 8.32998 25.13 7.69998 25.9 7.69998ZM17.5 9.79998C21.749 9.79998 25.2 13.251 25.2 17.5C25.2 21.749 21.749 25.2 17.5 25.2C13.251 25.2 9.79998 21.749 9.79998 17.5C9.79998 13.251 13.251 9.79998 17.5 9.79998ZM17.5 11.2C14.028 11.2 11.2 14.028 11.2 17.5C11.2 20.972 14.028 23.8 17.5 23.8C20.972 23.8 23.8 20.972 23.8 17.5C23.8 14.028 20.972 11.2 17.5 11.2Z" fill="#FF9900"/>
</svg>
